<svg width="94" height="94" viewBox="0 0 94 94" fill="none" xmlns="http://www.w3.org/2000/svg">
<g clip-path="url(#clip0_8291_33166)">
<path d="M78.7964 78.8079C96.3624 61.242 96.3624 32.7619 78.7964 15.196C61.2304 -2.37001 32.7504 -2.37001 15.1844 15.196C-2.38155 32.7619 -2.38155 61.242 15.1844 78.8079C32.7504 96.3739 61.2304 96.3739 78.7964 78.8079Z" fill="#E1BDC3"/>
<path fill-rule="evenodd" clip-rule="evenodd" d="M61 64.002L42.5 67.002L29.5 64.002L58 90.502C69 89.002 88.5 75.502 91.3077 54.7841L54.4454 26.0996L58.0001 36.002L66.0001 41.002L65.5001 54.002L61.0001 56.502L61 64.002Z" fill="#CD929D"/>
<path fill-rule="evenodd" clip-rule="evenodd" d="M58.8052 37.3957C58.8052 36.443 58.8052 35.4802 58.8052 34.5418C58.8052 31.7895 57.7124 29.1488 55.7644 27.2029C53.8185 25.2549 51.1779 24.1621 48.4255 24.1621C47.1864 24.1621 45.9088 24.1621 44.6697 24.1621C41.9174 24.1621 39.2768 25.2549 37.3308 27.2029C35.3829 29.1488 34.29 31.7895 34.29 34.5418V37.3957C34.29 43.8896 39.553 49.1526 46.0469 49.1526H47.0483C48.1696 49.1526 49.0796 48.2426 49.0796 47.1213C49.0796 46.0001 48.1696 45.0901 47.0483 45.0901H46.0469C41.7975 45.0901 38.3525 41.6451 38.3525 37.3957V34.5418C38.3525 32.866 39.0188 31.2593 40.203 30.0751C41.3872 28.8909 42.9939 28.2246 44.6697 28.2246H48.4255C50.1013 28.2246 51.708 28.8909 52.8922 30.0751C54.0785 31.2593 54.7427 32.866 54.7427 34.5418V37.3957C54.7427 38.517 55.6527 39.427 56.7739 39.427C57.8952 39.427 58.8052 38.517 58.8052 37.3957Z" fill="white"/>
<path fill-rule="evenodd" clip-rule="evenodd" d="M59.6139 57.2064C60.1543 58.4475 60.4508 59.7922 60.4508 61.1958C60.4508 61.537 60.1969 61.7889 59.8943 62.0489C59.4839 62.3963 58.9518 62.6989 58.3343 62.9731C55.4661 64.2488 50.9811 64.8439 46.5022 64.8439C42.0233 64.8439 37.5383 64.2488 34.6722 62.9731C34.0527 62.6989 33.5205 62.3963 33.1122 62.0489C32.8075 61.7889 32.5557 61.537 32.5557 61.1958C32.5557 54.6511 38.883 49.5039 46.5022 49.5039C47.6235 49.5039 48.5335 48.5939 48.5335 47.4727C48.5335 46.3514 47.6235 45.4414 46.5022 45.4414C36.4841 45.4414 28.4932 52.5914 28.4932 61.1958C28.4932 62.9609 29.458 64.5595 31.3572 65.7945C34.4386 67.7994 40.4613 68.9064 46.5022 68.9064C52.5452 68.9064 58.5658 67.7994 61.6472 65.7945C63.5485 64.5595 64.5133 62.9609 64.5133 61.1958C64.5133 59.2214 64.0989 57.3303 63.3372 55.5834C62.8904 54.5556 61.6919 54.0844 60.6641 54.5333C59.6363 54.9802 59.165 56.1786 59.6139 57.2064Z" fill="white"/>
<path fill-rule="evenodd" clip-rule="evenodd" d="M43.3191 59.017L43.3334 59.013C43.3334 59.013 42.1105 59.082 41.1559 58.8281C40.3941 58.627 39.5512 58.2391 39.1084 57.3372C38.6148 56.3297 37.398 55.9133 36.3905 56.4069C35.3851 56.9005 34.9666 58.1172 35.4602 59.1247C36.5957 61.4423 38.7285 62.4864 40.648 62.8805C42.5777 63.2766 44.2515 62.9698 44.349 62.9373C45.4113 62.5839 45.9882 61.4322 45.6327 60.3678C45.3077 59.3908 44.3063 58.8241 43.3191 59.017Z" fill="white"/>
<path fill-rule="evenodd" clip-rule="evenodd" d="M68.8405 42.6937C68.8405 38.8749 65.7448 35.7793 61.9281 35.7793H54.2053C50.3886 35.7793 47.293 38.8749 47.293 42.6937V50.4145C47.293 54.2332 50.3886 57.3268 54.2053 57.3268H61.9281C65.7448 57.3268 68.8405 54.2332 68.8405 50.4145V42.6937ZM64.778 42.6937V50.4145C64.778 51.9887 63.5023 53.2643 61.9281 53.2643H54.2053C52.6311 53.2643 51.3555 51.9887 51.3555 50.4145V42.6937C51.3555 41.1195 52.6311 39.8418 54.2053 39.8418H61.9281C63.5023 39.8418 64.778 41.1195 64.778 42.6937Z" fill="white"/>
<path fill-rule="evenodd" clip-rule="evenodd" d="M55.4912 48.4941H60.9512C62.0725 48.4941 62.9825 47.5821 62.9825 46.4629C62.9825 45.3416 62.0725 44.4316 60.9512 44.4316H55.4912C54.37 44.4316 53.46 45.3416 53.46 46.4629C53.46 47.5821 54.37 48.4941 55.4912 48.4941Z" fill="white"/>
</g>
<defs>
<clipPath id="clip0_8291_33166">
<rect width="94" height="94" fill="white"/>
</clipPath>
</defs>
</svg>
