<svg width="42" height="42" viewBox="0 0 42 42" fill="none" xmlns="http://www.w3.org/2000/svg">
<rect width="42" height="42" rx="10" fill="#F5EAEC"/>
<path d="M15.1666 23.5C13.325 23.5 11.8333 24.9917 11.8333 26.8333C11.8333 27.4583 12.0083 28.05 12.3166 28.55C12.8916 29.5167 13.95 30.1667 15.1666 30.1667C16.3833 30.1667 17.4416 29.5167 18.0166 28.55C18.325 28.05 18.5 27.4583 18.5 26.8333C18.5 24.9917 17.0083 23.5 15.1666 23.5ZM16.8083 26.5583L15.0333 28.2C14.9166 28.3083 14.7583 28.3667 14.6083 28.3667C14.45 28.3667 14.2916 28.3083 14.1666 28.1833L13.3416 27.3583C13.1 27.1167 13.1 26.7167 13.3416 26.475C13.5833 26.2333 13.9833 26.2333 14.225 26.475L14.625 26.875L15.9583 25.6417C16.2083 25.4083 16.6083 25.425 16.8416 25.675C17.075 25.925 17.0583 26.325 16.8083 26.5583Z" fill="#CD929D"/>
<path d="M28.9167 21.417H26.8334C25.9167 21.417 25.1667 22.167 25.1667 23.0837C25.1667 24.0003 25.9167 24.7503 26.8334 24.7503H28.9167C29.15 24.7503 29.3334 24.567 29.3334 24.3337V21.8337C29.3334 21.6003 29.15 21.417 28.9167 21.417Z" fill="#CD929D"/>
<path d="M24.775 15.4998C25.025 15.7415 24.8167 16.1165 24.4667 16.1165L17.5667 16.1081C17.1667 16.1081 16.9667 15.6248 17.25 15.3415L18.7083 13.8748C19.9417 12.6498 21.9333 12.6498 23.1667 13.8748L24.7417 15.4665C24.75 15.4748 24.7667 15.4915 24.775 15.4998Z" fill="#CD929D"/>
<path d="M29.225 26.5497C28.7167 28.2663 27.25 29.333 25.25 29.333H19.8334C19.5084 29.333 19.3 28.9747 19.4334 28.6747C19.6834 28.0913 19.8417 27.433 19.8417 26.833C19.8417 24.308 17.7834 22.2497 15.2584 22.2497C14.625 22.2497 14.0084 22.383 13.4417 22.633C13.1334 22.7663 12.7584 22.558 12.7584 22.2247V20.9997C12.7584 18.733 14.125 17.1497 16.25 16.883C16.4584 16.8497 16.6834 16.833 16.9167 16.833H25.25C25.4667 16.833 25.675 16.8413 25.875 16.8747C27.5584 17.0663 28.775 18.0913 29.225 19.6163C29.3084 19.8913 29.1084 20.1663 28.825 20.1663H26.9167C25.1084 20.1663 23.675 21.8163 24.0667 23.6913C24.3417 25.058 25.6084 25.9997 27 25.9997H28.825C29.1167 25.9997 29.3084 26.283 29.225 26.5497Z" fill="#CD929D"/>
</svg>
