<svg width="56" height="56" viewBox="0 0 56 56" fill="none" xmlns="http://www.w3.org/2000/svg">
<rect width="56" height="56" rx="10" fill="#F5EAEC"/>
<path d="M28.1596 27.62C28.1296 27.62 28.1096 27.62 28.0796 27.62C28.0296 27.61 27.9596 27.61 27.8996 27.62C24.9996 27.53 22.8096 25.25 22.8096 22.44C22.8096 19.58 25.1396 17.25 27.9996 17.25C30.8596 17.25 33.1896 19.58 33.1896 22.44C33.1796 25.25 30.9796 27.53 28.1896 27.62C28.1796 27.62 28.1696 27.62 28.1596 27.62ZM27.9996 18.75C25.9696 18.75 24.3096 20.41 24.3096 22.44C24.3096 24.44 25.8696 26.05 27.8596 26.12C27.9096 26.11 28.0496 26.11 28.1796 26.12C30.1396 26.03 31.6796 24.42 31.6896 22.44C31.6896 20.41 30.0296 18.75 27.9996 18.75Z" fill="#CD929D"/>
<path d="M28.1696 38.55C26.2096 38.55 24.2396 38.05 22.7496 37.05C21.3596 36.13 20.5996 34.87 20.5996 33.5C20.5996 32.13 21.3596 30.86 22.7496 29.93C25.7496 27.94 30.6096 27.94 33.5896 29.93C34.9696 30.85 35.7396 32.11 35.7396 33.48C35.7396 34.85 34.9796 36.12 33.5896 37.05C32.0896 38.05 30.1296 38.55 28.1696 38.55ZM23.5796 31.19C22.6196 31.83 22.0996 32.65 22.0996 33.51C22.0996 34.36 22.6296 35.18 23.5796 35.81C26.0696 37.48 30.2696 37.48 32.7596 35.81C33.7196 35.17 34.2396 34.35 34.2396 33.49C34.2396 32.64 33.7096 31.82 32.7596 31.19C30.2696 29.53 26.0696 29.53 23.5796 31.19Z" fill="#CD929D"/>
</svg>
