<svg width="48" height="48" viewBox="0 0 48 48" fill="none" xmlns="http://www.w3.org/2000/svg">
<rect width="48" height="48" rx="8" fill="black"/>
<path d="M11.9433 18.0628C11.498 18.6032 10.7853 19.0295 10.0727 18.9686C9.98366 18.2379 10.3325 17.4615 10.7408 16.9819C11.1861 16.4263 11.9655 16.0304 12.5965 16C12.6707 16.7612 12.3812 17.5071 11.9433 18.0628ZM12.5891 19.1133C11.5573 19.0524 10.674 19.7145 10.1841 19.7145C9.68686 19.7145 8.9371 19.1437 8.12062 19.1589C7.05922 19.1741 6.07196 19.7906 5.53009 20.7726C4.41665 22.7364 5.24063 25.6442 6.31688 27.2426C6.84391 28.0342 7.47484 28.902 8.30617 28.8715C9.09304 28.8411 9.40476 28.3464 10.3549 28.3464C11.3124 28.3464 11.5871 28.8715 12.4184 28.8563C13.2794 28.8411 13.8213 28.0648 14.3483 27.2731C14.9495 26.3749 15.1945 25.4995 15.2093 25.4538C15.1945 25.4386 13.5467 24.7917 13.5318 22.843C13.517 21.2141 14.8308 20.4377 14.8902 20.392C14.1479 19.2655 12.99 19.1437 12.5891 19.1133ZM18.5496 16.9058V28.7727H20.3459V24.7156H22.8325C25.1038 24.7156 26.6998 23.1171 26.6998 20.8031C26.6998 18.4892 25.1335 16.9059 22.8919 16.9059L18.5496 16.9058ZM20.3459 18.4586H22.4168C23.9756 18.4586 24.8663 19.3111 24.8663 20.8106C24.8663 22.3101 23.9756 23.1703 22.4094 23.1703H20.3459V18.4586ZM29.9805 28.8639C31.1088 28.8639 32.1554 28.2779 32.6304 27.3492H32.6675V28.7726H34.3303V22.8658C34.3303 21.1532 32.9942 20.0495 30.938 20.0495C29.0304 20.0495 27.6201 21.1684 27.5681 22.706H29.1863C29.3199 21.9753 29.9805 21.4957 30.8861 21.4957C31.9847 21.4957 32.6007 22.0209 32.6007 22.9877V23.6422L30.359 23.7792C28.2733 23.9086 27.1451 24.784 27.1451 26.3064C27.1451 27.844 28.3104 28.8639 29.9805 28.8639ZM30.4629 27.4557C29.5055 27.4557 28.8968 26.9839 28.8968 26.2607C28.8968 25.5148 29.4832 25.0809 30.604 25.0124L32.6007 24.883V25.5528C32.6007 26.6641 31.6803 27.4557 30.4629 27.4557ZM36.5497 32C38.3015 32 39.1254 31.315 39.8454 29.2369L43 20.1636H41.174L39.0585 27.1741H39.0214L36.906 20.1636H35.028L38.0713 28.803L37.908 29.3283C37.6334 30.2188 37.188 30.5614 36.3938 30.5614C36.2528 30.5614 35.9782 30.5462 35.8668 30.5309V31.9543C35.9707 31.9848 36.416 32 36.5497 32Z" fill="white"/>
</svg>
