<svg width="94" height="94" viewBox="0 0 94 94" fill="none" xmlns="http://www.w3.org/2000/svg">
<g clip-path="url(#clip0_1352_48946)">
<path d="M78.7964 78.8079C96.3624 61.242 96.3624 32.7619 78.7964 15.196C61.2304 -2.37001 32.7504 -2.37001 15.1844 15.196C-2.38155 32.7619 -2.38155 61.242 15.1844 78.8079C32.7504 96.3739 61.2304 96.3739 78.7964 78.8079Z" fill="#E1BDC3"/>
<path fill-rule="evenodd" clip-rule="evenodd" d="M28 57L50.3129 91.8606C66.5 91.8606 86 77.5 90.5 58.5L60.5 29.5L41.5 27L28 37.5V57Z" fill="#CD929D"/>
<path d="M47 26C35.4139 26 26 35.4139 26 47C26 58.5861 35.4139 68 47 68C58.5861 68 68 58.5861 68 47C68 35.4139 58.5861 26 47 26ZM47 28C57.5052 28 66 36.4948 66 47C66 57.5052 57.5052 66 47 66C36.4948 66 28 57.5052 28 47C28 36.4948 36.4948 28 47 28ZM39 37.5C37.0788 37.5 35.5 39.0788 35.5 41C35.5 42.9212 37.0788 44.5 39 44.5C40.9212 44.5 42.5 42.9212 42.5 41C42.5 39.0788 40.9212 37.5 39 37.5ZM55 37.5C53.0788 37.5 51.5 39.0788 51.5 41C51.5 42.9212 53.0788 44.5 55 44.5C56.9212 44.5 58.5 42.9212 58.5 41C58.5 39.0788 56.9212 37.5 55 37.5ZM39 39.5C39.8403 39.5 40.5 40.1597 40.5 41C40.5 41.8403 39.8403 42.5 39 42.5C38.1597 42.5 37.5 41.8403 37.5 41C37.5 40.1597 38.1597 39.5 39 39.5ZM55 39.5C55.8403 39.5 56.5 40.1597 56.5 41C56.5 41.8403 55.8403 42.5 55 42.5C54.1597 42.5 53.5 41.8403 53.5 41C53.5 40.1597 54.1597 39.5 55 39.5ZM38.1758 55.211C37.8664 55.6665 37.9834 56.2864 38.4375 56.5977C38.893 56.9072 39.5129 56.7901 39.8242 56.336C41.4005 54.0293 43.7473 52.3597 46.4414 51.6212C49.1551 50.9008 52.0354 51.1714 54.5664 52.3868C55.0647 52.627 55.6633 52.417 55.9024 51.9181C56.1398 51.4207 55.9302 50.825 55.4336 50.586C53.9536 49.8753 52.3712 49.4411 50.7617 49.2892C45.8858 48.867 40.889 51.3515 38.1758 55.211Z" fill="white" stroke="white" stroke-width="2"/>
</g>
<defs>
<clipPath id="clip0_1352_48946">
<rect width="94" height="94" fill="white"/>
</clipPath>
</defs>
</svg>
