<svg width="22" height="23" viewBox="0 0 22 23" fill="none" xmlns="http://www.w3.org/2000/svg">
<path d="M3.21768 10.1493C3.06989 9.99894 2.98707 9.79654 2.98707 9.5857C2.98707 9.37487 3.06989 9.17247 3.21768 9.02211L3.21793 9.02185L9.24893 2.92985L9.25815 2.92055L9.25867 2.92122C10.632 1.85485 12.0229 1.33581 13.4151 1.40633L13.4151 1.40634C15.1571 1.49567 16.5151 2.1608 17.6647 3.24857L17.6647 3.24857C18.8404 4.36115 19.6 5.94827 19.6 7.86821C19.6 9.34153 19.1711 10.6415 18.2656 11.794L18.2591 11.8022L18.2588 11.8019L9.75576 20.5619L9.74781 20.57L9.7474 20.5695C8.87042 21.2885 7.8909 21.6392 6.84 21.5971L6.83985 21.5971C5.51866 21.5422 4.52684 21.1142 3.78769 20.3833C2.92876 19.5356 2.4 18.4897 2.4 17.0872C2.4 15.9697 2.78663 14.9397 3.57776 13.9777L3.58329 13.971L3.58356 13.9712L11.0668 6.331C11.6736 5.68391 12.2794 5.28625 12.9106 5.18939C13.3272 5.12382 13.7534 5.16109 14.1522 5.29796C14.5511 5.43485 14.9104 5.66721 15.1989 5.97479C15.7518 6.56004 15.9882 7.29112 15.9055 8.11717L15.9055 8.11725C15.8482 8.68498 15.6156 9.20564 15.1941 9.70008L15.1897 9.70522L15.1896 9.70506L8.30973 16.7529C8.3097 16.7529 8.30967 16.7529 8.30964 16.753C8.23725 16.8275 8.15075 16.8868 8.05518 16.9276C7.95957 16.9684 7.85681 16.9897 7.75287 16.9903C7.64894 16.991 7.54592 16.9709 7.44982 16.9313C7.35371 16.8917 7.26646 16.8334 7.19313 16.7598L7.19311 16.7597C7.0444 16.6103 6.96035 16.4084 6.95907 16.1975C6.95778 15.9867 7.03937 15.7838 7.18626 15.6325L7.18645 15.6323L14.031 8.62282C14.2185 8.40167 14.3129 8.1841 14.3355 7.95633L14.3355 7.95625C14.3729 7.58225 14.2845 7.31684 14.0574 7.07696L14.0569 7.07645C13.9424 6.9538 13.7994 6.86136 13.6405 6.80735C13.4816 6.75333 13.3119 6.73943 13.1463 6.76686L13.1451 6.76707C13.0443 6.7824 12.913 6.83801 12.7518 6.94917C12.5915 7.05962 12.4071 7.22115 12.2009 7.44068L12.1994 7.4422L12.1994 7.44219L4.74955 15.046C4.22753 15.684 3.978 16.356 3.978 17.0882C3.978 18.0126 4.31012 18.6707 4.89023 19.243L4.89034 19.2431C5.34405 19.6921 5.96346 19.9651 6.90397 20.0043C7.55576 20.0302 8.16075 19.8158 8.69043 19.3882L17.0795 10.7465C17.7074 9.93938 18.022 8.98985 18.022 7.8692C18.022 6.41493 17.4565 5.2391 16.5852 4.4138C15.6908 3.56659 14.6729 3.06974 13.3359 3.00107L13.3358 3.00107C12.3601 2.95074 11.3278 3.3289 10.2903 4.12241L4.33514 10.1505L4.164 10.3237V10.2812C4.13677 10.2967 4.10857 10.3106 4.07956 10.3228C3.9836 10.3631 3.88057 10.3838 3.7765 10.3838C3.67243 10.3838 3.5694 10.3631 3.47344 10.3228C3.37751 10.2825 3.29056 10.2236 3.21768 10.1493ZM3.21768 10.1493C3.21766 10.1493 3.21764 10.1493 3.21762 10.1492L3.289 10.0792L3.21768 10.1493Z" fill="#6C757D" stroke="#6C757D" stroke-width="0.2"/>
</svg>
