<svg width="21" height="20" viewBox="0 0 21 20" fill="none" xmlns="http://www.w3.org/2000/svg">
<path d="M2.20864 10.8621C1.96452 10.6528 1.84246 10.5482 1.79774 10.4237C1.75848 10.3145 1.75848 10.1949 1.79774 10.0857C1.84246 9.96115 1.96452 9.85653 2.20864 9.64728L10.6794 2.38666C11.0996 2.02646 11.3097 1.84636 11.4876 1.84195C11.6422 1.83812 11.7899 1.90604 11.8876 2.02592C12 2.16385 12 2.44059 12 2.99406V7.28932C14.1347 7.66277 16.0884 8.74444 17.5403 10.3686C19.1232 12.1392 19.9988 14.4306 20 16.8056V17.4176C18.9507 16.1536 17.6405 15.1312 16.1592 14.4206C14.8533 13.7941 13.4416 13.423 12 13.3252V17.5153C12 18.0688 12 18.3455 11.8876 18.4835C11.7899 18.6033 11.6422 18.6713 11.4876 18.6674C11.3097 18.663 11.0996 18.4829 10.6794 18.1227L2.20864 10.8621Z" stroke="#CD929D" stroke-width="2" stroke-linecap="round" stroke-linejoin="round"/>
</svg>
