<svg width="16" height="18" viewBox="0 0 16 18" fill="none" xmlns="http://www.w3.org/2000/svg">
<path d="M5 4.3125C4.6925 4.3125 4.4375 4.0575 4.4375 3.75V1.5C4.4375 1.1925 4.6925 0.9375 5 0.9375C5.3075 0.9375 5.5625 1.1925 5.5625 1.5V3.75C5.5625 4.0575 5.3075 4.3125 5 4.3125Z" fill="#6C757D"/>
<path d="M11 4.3125C10.6925 4.3125 10.4375 4.0575 10.4375 3.75V1.5C10.4375 1.1925 10.6925 0.9375 11 0.9375C11.3075 0.9375 11.5625 1.1925 11.5625 1.5V3.75C11.5625 4.0575 11.3075 4.3125 11 4.3125Z" fill="#6C757D"/>
<path d="M5.375 10.875C5.2775 10.875 5.18 10.8525 5.09 10.815C4.9925 10.7775 4.9175 10.725 4.8425 10.6575C4.7075 10.515 4.625 10.3275 4.625 10.125C4.625 10.0275 4.6475 9.93 4.685 9.84C4.7225 9.75 4.775 9.66751 4.8425 9.59251C4.9175 9.52501 4.9925 9.4725 5.09 9.43499C5.36 9.32249 5.6975 9.38251 5.9075 9.59251C6.0425 9.73501 6.125 9.93001 6.125 10.125C6.125 10.17 6.1175 10.2225 6.11 10.275C6.1025 10.32 6.0875 10.365 6.065 10.41C6.05 10.455 6.0275 10.5 5.9975 10.545C5.975 10.5825 5.9375 10.62 5.9075 10.6575C5.765 10.7925 5.57 10.875 5.375 10.875Z" fill="#6C757D"/>
<path d="M8 10.875C7.9025 10.875 7.805 10.8525 7.715 10.815C7.6175 10.7775 7.5425 10.725 7.4675 10.6575C7.3325 10.515 7.25 10.3275 7.25 10.125C7.25 10.0275 7.2725 9.92999 7.31 9.83999C7.3475 9.74999 7.4 9.6675 7.4675 9.5925C7.5425 9.525 7.6175 9.47249 7.715 9.43499C7.985 9.31499 8.3225 9.3825 8.5325 9.5925C8.6675 9.735 8.75 9.93 8.75 10.125C8.75 10.17 8.7425 10.2225 8.735 10.275C8.7275 10.32 8.7125 10.365 8.69 10.41C8.675 10.455 8.6525 10.5 8.6225 10.545C8.6 10.5825 8.5625 10.62 8.5325 10.6575C8.39 10.7925 8.195 10.875 8 10.875Z" fill="#6C757D"/>
<path d="M10.625 10.875C10.5275 10.875 10.43 10.8525 10.34 10.815C10.2425 10.7775 10.1675 10.725 10.0925 10.6575C10.0625 10.62 10.0325 10.5825 10.0025 10.545C9.9725 10.5 9.95 10.455 9.935 10.41C9.9125 10.365 9.8975 10.32 9.89 10.275C9.8825 10.2225 9.875 10.17 9.875 10.125C9.875 9.93 9.9575 9.735 10.0925 9.5925C10.1675 9.525 10.2425 9.47249 10.34 9.43499C10.6175 9.31499 10.9475 9.3825 11.1575 9.5925C11.2925 9.735 11.375 9.93 11.375 10.125C11.375 10.17 11.3675 10.2225 11.36 10.275C11.3525 10.32 11.3375 10.365 11.315 10.41C11.3 10.455 11.2775 10.5 11.2475 10.545C11.225 10.5825 11.1875 10.62 11.1575 10.6575C11.015 10.7925 10.82 10.875 10.625 10.875Z" fill="#6C757D"/>
<path d="M5.375 13.5C5.2775 13.5 5.18 13.4775 5.09 13.44C5 13.4025 4.9175 13.35 4.8425 13.2825C4.7075 13.14 4.625 12.945 4.625 12.75C4.625 12.6525 4.6475 12.555 4.685 12.465C4.7225 12.3675 4.775 12.285 4.8425 12.2175C5.12 11.94 5.63 11.94 5.9075 12.2175C6.0425 12.36 6.125 12.555 6.125 12.75C6.125 12.945 6.0425 13.14 5.9075 13.2825C5.765 13.4175 5.57 13.5 5.375 13.5Z" fill="#6C757D"/>
<path d="M8 13.5C7.805 13.5 7.61 13.4175 7.4675 13.2825C7.3325 13.14 7.25 12.945 7.25 12.75C7.25 12.6525 7.2725 12.555 7.31 12.465C7.3475 12.3675 7.4 12.285 7.4675 12.2175C7.745 11.94 8.255 11.94 8.5325 12.2175C8.6 12.285 8.6525 12.3675 8.69 12.465C8.7275 12.555 8.75 12.6525 8.75 12.75C8.75 12.945 8.6675 13.14 8.5325 13.2825C8.39 13.4175 8.195 13.5 8 13.5Z" fill="#6C757D"/>
<path d="M10.625 13.5C10.43 13.5 10.235 13.4175 10.0925 13.2825C10.025 13.215 9.9725 13.1325 9.935 13.035C9.8975 12.945 9.875 12.8475 9.875 12.75C9.875 12.6525 9.8975 12.555 9.935 12.465C9.9725 12.3675 10.025 12.285 10.0925 12.2175C10.265 12.045 10.5275 11.9625 10.7675 12.015C10.82 12.0225 10.865 12.0375 10.91 12.06C10.955 12.075 11 12.0975 11.045 12.1275C11.0825 12.15 11.12 12.1875 11.1575 12.2175C11.2925 12.36 11.375 12.555 11.375 12.75C11.375 12.945 11.2925 13.14 11.1575 13.2825C11.015 13.4175 10.82 13.5 10.625 13.5Z" fill="#6C757D"/>
<path d="M14.375 7.37997H1.625C1.3175 7.37997 1.0625 7.12497 1.0625 6.81747C1.0625 6.50997 1.3175 6.25497 1.625 6.25497H14.375C14.6825 6.25497 14.9375 6.50997 14.9375 6.81747C14.9375 7.12497 14.6825 7.37997 14.375 7.37997Z" fill="#6C757D"/>
<path d="M11 17.0625H5C2.2625 17.0625 0.6875 15.4875 0.6875 12.75V6.375C0.6875 3.6375 2.2625 2.0625 5 2.0625H11C13.7375 2.0625 15.3125 3.6375 15.3125 6.375V12.75C15.3125 15.4875 13.7375 17.0625 11 17.0625ZM5 3.1875C2.855 3.1875 1.8125 4.23 1.8125 6.375V12.75C1.8125 14.895 2.855 15.9375 5 15.9375H11C13.145 15.9375 14.1875 14.895 14.1875 12.75V6.375C14.1875 4.23 13.145 3.1875 11 3.1875H5Z" fill="#6C757D"/>
</svg>
