<svg width="17" height="18" viewBox="0 0 17 18" fill="none" xmlns="http://www.w3.org/2000/svg">
<path d="M5.33366 3.7915C4.99199 3.7915 4.70866 3.50817 4.70866 3.1665V0.666504C4.70866 0.324837 4.99199 0.0415039 5.33366 0.0415039C5.67533 0.0415039 5.95866 0.324837 5.95866 0.666504V3.1665C5.95866 3.50817 5.67533 3.7915 5.33366 3.7915Z" fill="#CD929D"/>
<path d="M12.0003 3.7915C11.6587 3.7915 11.3753 3.50817 11.3753 3.1665V0.666504C11.3753 0.324837 11.6587 0.0415039 12.0003 0.0415039C12.342 0.0415039 12.6253 0.324837 12.6253 0.666504V3.1665C12.6253 3.50817 12.342 3.7915 12.0003 3.7915Z" fill="#CD929D"/>
<path d="M5.75033 11.0832C5.64199 11.0832 5.53366 11.0582 5.43366 11.0165C5.32532 10.9749 5.24199 10.9165 5.15866 10.8415C5.00866 10.6832 4.91699 10.4748 4.91699 10.2498C4.91699 10.1415 4.94199 10.0332 4.98366 9.93317C5.02533 9.83317 5.08366 9.74152 5.15866 9.65818C5.24199 9.58318 5.32532 9.52483 5.43366 9.48317C5.73366 9.35817 6.10866 9.42485 6.34199 9.65818C6.49199 9.81652 6.58366 10.0332 6.58366 10.2498C6.58366 10.2998 6.57532 10.3582 6.56699 10.4165C6.55866 10.4665 6.54199 10.5165 6.51699 10.5665C6.50032 10.6165 6.47533 10.6665 6.44199 10.7165C6.41699 10.7582 6.37532 10.7998 6.34199 10.8415C6.18366 10.9915 5.96699 11.0832 5.75033 11.0832Z" fill="#CD929D"/>
<path d="M8.66699 11.0832C8.55866 11.0832 8.45032 11.0582 8.35032 11.0165C8.24199 10.9748 8.15866 10.9165 8.07533 10.8415C7.92533 10.6832 7.83366 10.4748 7.83366 10.2498C7.83366 10.1415 7.85866 10.0332 7.90033 9.93316C7.94199 9.83316 8.00033 9.74151 8.07533 9.65817C8.15866 9.58317 8.24199 9.52482 8.35032 9.48316C8.65032 9.34982 9.02532 9.42484 9.25866 9.65817C9.40866 9.81651 9.50033 10.0332 9.50033 10.2498C9.50033 10.2998 9.49199 10.3582 9.48366 10.4165C9.47532 10.4665 9.45866 10.5165 9.43366 10.5665C9.41699 10.6165 9.39199 10.6665 9.35866 10.7165C9.33366 10.7582 9.29199 10.7998 9.25866 10.8415C9.10032 10.9915 8.88366 11.0832 8.66699 11.0832Z" fill="#CD929D"/>
<path d="M11.5837 11.0832C11.4753 11.0832 11.367 11.0582 11.267 11.0165C11.1587 10.9748 11.0753 10.9165 10.992 10.8415C10.9587 10.7998 10.9253 10.7582 10.892 10.7165C10.8587 10.6665 10.8337 10.6165 10.817 10.5665C10.792 10.5165 10.7753 10.4665 10.767 10.4165C10.7587 10.3582 10.7503 10.2998 10.7503 10.2498C10.7503 10.0332 10.842 9.81651 10.992 9.65817C11.0753 9.58317 11.1587 9.52482 11.267 9.48316C11.5753 9.34982 11.942 9.42484 12.1753 9.65817C12.3253 9.81651 12.417 10.0332 12.417 10.2498C12.417 10.2998 12.4087 10.3582 12.4003 10.4165C12.392 10.4665 12.3753 10.5165 12.3503 10.5665C12.3337 10.6165 12.3087 10.6665 12.2753 10.7165C12.2503 10.7582 12.2087 10.7998 12.1753 10.8415C12.017 10.9915 11.8003 11.0832 11.5837 11.0832Z" fill="#CD929D"/>
<path d="M5.75033 13.9998C5.64199 13.9998 5.53366 13.9749 5.43366 13.9332C5.33366 13.8915 5.24199 13.8332 5.15866 13.7582C5.00866 13.5998 4.91699 13.3832 4.91699 13.1665C4.91699 13.0582 4.94199 12.9498 4.98366 12.8498C5.02533 12.7415 5.08366 12.6498 5.15866 12.5748C5.46699 12.2665 6.03366 12.2665 6.34199 12.5748C6.49199 12.7332 6.58366 12.9498 6.58366 13.1665C6.58366 13.3832 6.49199 13.5998 6.34199 13.7582C6.18366 13.9082 5.96699 13.9998 5.75033 13.9998Z" fill="#CD929D"/>
<path d="M8.66699 13.9998C8.45033 13.9998 8.23366 13.9082 8.07533 13.7582C7.92533 13.5998 7.83366 13.3832 7.83366 13.1665C7.83366 13.0582 7.85866 12.9498 7.90033 12.8498C7.94199 12.7415 8.00033 12.6498 8.07533 12.5748C8.38366 12.2665 8.95032 12.2665 9.25866 12.5748C9.33366 12.6498 9.39199 12.7415 9.43366 12.8498C9.47532 12.9498 9.50033 13.0582 9.50033 13.1665C9.50033 13.3832 9.40866 13.5998 9.25866 13.7582C9.10032 13.9082 8.88366 13.9998 8.66699 13.9998Z" fill="#CD929D"/>
<path d="M11.5837 13.9999C11.367 13.9999 11.1503 13.9082 10.992 13.7582C10.917 13.6832 10.8587 13.5915 10.817 13.4832C10.7753 13.3832 10.7503 13.2749 10.7503 13.1665C10.7503 13.0582 10.7753 12.9499 10.817 12.8499C10.8587 12.7415 10.917 12.6499 10.992 12.5749C11.1837 12.3832 11.4753 12.2915 11.742 12.3499C11.8003 12.3582 11.8503 12.3749 11.9003 12.3999C11.9503 12.4165 12.0003 12.4415 12.0503 12.4749C12.092 12.4999 12.1337 12.5415 12.1753 12.5749C12.3253 12.7332 12.417 12.9499 12.417 13.1665C12.417 13.3832 12.3253 13.5999 12.1753 13.7582C12.017 13.9082 11.8003 13.9999 11.5837 13.9999Z" fill="#CD929D"/>
<path d="M15.7503 7.19981H1.58366C1.24199 7.19981 0.958659 6.91648 0.958659 6.57481C0.958659 6.23314 1.24199 5.94981 1.58366 5.94981H15.7503C16.092 5.94981 16.3753 6.23314 16.3753 6.57481C16.3753 6.91648 16.092 7.19981 15.7503 7.19981Z" fill="#CD929D"/>
<path d="M12.0003 17.9582H5.33366C2.29199 17.9582 0.541992 16.2082 0.541992 13.1665V6.08317C0.541992 3.0415 2.29199 1.2915 5.33366 1.2915H12.0003C15.042 1.2915 16.792 3.0415 16.792 6.08317V13.1665C16.792 16.2082 15.042 17.9582 12.0003 17.9582ZM5.33366 2.5415C2.95033 2.5415 1.79199 3.69984 1.79199 6.08317V13.1665C1.79199 15.5498 2.95033 16.7082 5.33366 16.7082H12.0003C14.3837 16.7082 15.542 15.5498 15.542 13.1665V6.08317C15.542 3.69984 14.3837 2.5415 12.0003 2.5415H5.33366Z" fill="#CD929D"/>
</svg>
