<svg width="20" height="20" viewBox="0 0 20 20" fill="none" xmlns="http://www.w3.org/2000/svg">
<path d="M6.66667 4.79102C6.325 4.79102 6.04167 4.50768 6.04167 4.16602V1.66602C6.04167 1.32435 6.325 1.04102 6.66667 1.04102C7.00833 1.04102 7.29167 1.32435 7.29167 1.66602V4.16602C7.29167 4.50768 7.00833 4.79102 6.66667 4.79102Z" fill="#6C757D"/>
<path d="M13.3333 4.79102C12.9917 4.79102 12.7083 4.50768 12.7083 4.16602V1.66602C12.7083 1.32435 12.9917 1.04102 13.3333 1.04102C13.675 1.04102 13.9583 1.32435 13.9583 1.66602V4.16602C13.9583 4.50768 13.675 4.79102 13.3333 4.79102Z" fill="#6C757D"/>
<path d="M7.08333 12.0827C6.975 12.0827 6.86667 12.0577 6.76667 12.016C6.65833 11.9744 6.575 11.916 6.49167 11.841C6.34167 11.6827 6.25 11.4744 6.25 11.2494C6.25 11.141 6.275 11.0327 6.31667 10.9327C6.35833 10.8327 6.41667 10.741 6.49167 10.6577C6.575 10.5827 6.65833 10.5243 6.76667 10.4827C7.06667 10.3577 7.44167 10.4244 7.675 10.6577C7.825 10.816 7.91667 11.0327 7.91667 11.2494C7.91667 11.2994 7.90833 11.3577 7.9 11.416C7.89167 11.466 7.875 11.516 7.85 11.566C7.83333 11.616 7.80833 11.666 7.775 11.716C7.75 11.7577 7.70833 11.7993 7.675 11.841C7.51667 11.991 7.3 12.0827 7.08333 12.0827Z" fill="#6C757D"/>
<path d="M10 12.0827C9.89167 12.0827 9.78333 12.0577 9.68333 12.016C9.575 11.9744 9.49167 11.916 9.40833 11.841C9.25833 11.6827 9.16667 11.4743 9.16667 11.2493C9.16667 11.141 9.19167 11.0327 9.23333 10.9327C9.275 10.8327 9.33333 10.741 9.40833 10.6577C9.49167 10.5827 9.575 10.5243 9.68333 10.4827C9.98333 10.3493 10.3583 10.4244 10.5917 10.6577C10.7417 10.816 10.8333 11.0327 10.8333 11.2493C10.8333 11.2993 10.825 11.3577 10.8167 11.416C10.8083 11.466 10.7917 11.516 10.7667 11.566C10.75 11.616 10.725 11.666 10.6917 11.716C10.6667 11.7577 10.625 11.7993 10.5917 11.841C10.4333 11.991 10.2167 12.0827 10 12.0827Z" fill="#6C757D"/>
<path d="M12.9167 12.0827C12.8083 12.0827 12.7 12.0577 12.6 12.016C12.4917 11.9744 12.4083 11.916 12.325 11.841C12.2917 11.7993 12.2583 11.7577 12.225 11.716C12.1917 11.666 12.1667 11.616 12.15 11.566C12.125 11.516 12.1083 11.466 12.1 11.416C12.0917 11.3577 12.0833 11.2993 12.0833 11.2493C12.0833 11.0327 12.175 10.816 12.325 10.6577C12.4083 10.5827 12.4917 10.5243 12.6 10.4827C12.9083 10.3493 13.275 10.4244 13.5083 10.6577C13.6583 10.816 13.75 11.0327 13.75 11.2493C13.75 11.2993 13.7417 11.3577 13.7333 11.416C13.725 11.466 13.7083 11.516 13.6833 11.566C13.6667 11.616 13.6417 11.666 13.6083 11.716C13.5833 11.7577 13.5417 11.7993 13.5083 11.841C13.35 11.991 13.1333 12.0827 12.9167 12.0827Z" fill="#6C757D"/>
<path d="M7.08333 14.9994C6.975 14.9994 6.86667 14.9744 6.76667 14.9327C6.66667 14.891 6.575 14.8327 6.49167 14.7577C6.34167 14.5993 6.25 14.3827 6.25 14.166C6.25 14.0577 6.275 13.9493 6.31667 13.8493C6.35833 13.741 6.41667 13.6494 6.49167 13.5744C6.8 13.266 7.36667 13.266 7.675 13.5744C7.825 13.7327 7.91667 13.9494 7.91667 14.166C7.91667 14.3827 7.825 14.5993 7.675 14.7577C7.51667 14.9077 7.3 14.9994 7.08333 14.9994Z" fill="#6C757D"/>
<path d="M10 14.9994C9.78333 14.9994 9.56667 14.9077 9.40833 14.7577C9.25833 14.5993 9.16667 14.3827 9.16667 14.166C9.16667 14.0577 9.19167 13.9493 9.23333 13.8493C9.275 13.741 9.33333 13.6494 9.40833 13.5744C9.71667 13.266 10.2833 13.266 10.5917 13.5744C10.6667 13.6494 10.725 13.741 10.7667 13.8493C10.8083 13.9493 10.8333 14.0577 10.8333 14.166C10.8333 14.3827 10.7417 14.5993 10.5917 14.7577C10.4333 14.9077 10.2167 14.9994 10 14.9994Z" fill="#6C757D"/>
<path d="M12.9167 14.9994C12.7 14.9994 12.4833 14.9077 12.325 14.7577C12.25 14.6827 12.1917 14.591 12.15 14.4827C12.1083 14.3827 12.0833 14.2744 12.0833 14.166C12.0833 14.0577 12.1083 13.9494 12.15 13.8494C12.1917 13.741 12.25 13.6494 12.325 13.5744C12.5167 13.3827 12.8083 13.291 13.075 13.3494C13.1333 13.3577 13.1833 13.3744 13.2333 13.3994C13.2833 13.416 13.3333 13.4411 13.3833 13.4744C13.425 13.4994 13.4667 13.5411 13.5083 13.5744C13.6583 13.7327 13.75 13.9494 13.75 14.166C13.75 14.3827 13.6583 14.5994 13.5083 14.7577C13.35 14.9077 13.1333 14.9994 12.9167 14.9994Z" fill="#6C757D"/>
<path d="M17.0833 8.19932H2.91667C2.575 8.19932 2.29167 7.91599 2.29167 7.57432C2.29167 7.23265 2.575 6.94932 2.91667 6.94932H17.0833C17.425 6.94932 17.7083 7.23265 17.7083 7.57432C17.7083 7.91599 17.425 8.19932 17.0833 8.19932Z" fill="#6C757D"/>
<path d="M13.3333 18.9577H6.66667C3.625 18.9577 1.875 17.2077 1.875 14.166V7.08268C1.875 4.04102 3.625 2.29102 6.66667 2.29102H13.3333C16.375 2.29102 18.125 4.04102 18.125 7.08268V14.166C18.125 17.2077 16.375 18.9577 13.3333 18.9577ZM6.66667 3.54102C4.28333 3.54102 3.125 4.69935 3.125 7.08268V14.166C3.125 16.5493 4.28333 17.7077 6.66667 17.7077H13.3333C15.7167 17.7077 16.875 16.5493 16.875 14.166V7.08268C16.875 4.69935 15.7167 3.54102 13.3333 3.54102H6.66667Z" fill="#6C757D"/>
</svg>
