<svg width="24" height="25" viewBox="0 0 24 25" fill="none" xmlns="http://www.w3.org/2000/svg">
<path d="M17.45 23.0039C16.32 23.0039 15.13 22.7339 13.9 22.2139C12.7 21.7039 11.49 21.0039 10.31 20.1539C9.14 19.2939 8.01 18.3339 6.94 17.2839C5.88 16.2139 4.92 15.0839 4.07 13.9239C3.21 12.7239 2.52 11.5239 2.03 10.3639C1.51 9.12391 1.25 7.92391 1.25 6.79391C1.25 6.01391 1.39 5.27391 1.66 4.58391C1.94 3.87391 2.39 3.21391 3 2.64391C3.77 1.88391 4.65 1.50391 5.59 1.50391C5.98 1.50391 6.38 1.59391 6.72 1.75391C7.11 1.93391 7.44 2.20391 7.68 2.56391L10 5.83391C10.21 6.12391 10.37 6.40391 10.48 6.68391C10.61 6.98391 10.68 7.28391 10.68 7.57391C10.68 7.95391 10.57 8.32391 10.36 8.67391C10.21 8.94391 9.98 9.23391 9.69 9.52391L9.01 10.2339C9.02 10.2639 9.03 10.2839 9.04 10.3039C9.16 10.5139 9.4 10.8739 9.86 11.4139C10.35 11.9739 10.81 12.4839 11.27 12.9539C11.86 13.5339 12.35 13.9939 12.81 14.3739C13.38 14.8539 13.75 15.0939 13.97 15.2039L13.95 15.2539L14.68 14.5339C14.99 14.2239 15.29 13.9939 15.58 13.8439C16.13 13.5039 16.83 13.4439 17.53 13.7339C17.79 13.8439 18.07 13.9939 18.37 14.2039L21.69 16.5639C22.06 16.8139 22.33 17.1339 22.49 17.5139C22.64 17.8939 22.71 18.2439 22.71 18.5939C22.71 19.0739 22.6 19.5539 22.39 20.0039C22.18 20.4539 21.92 20.8439 21.59 21.2039C21.02 21.8339 20.4 22.2839 19.68 22.5739C18.99 22.8539 18.24 23.0039 17.45 23.0039ZM5.59 3.00391C5.04 3.00391 4.53 3.24391 4.04 3.72391C3.58 4.15391 3.26 4.62391 3.06 5.13391C2.85 5.65391 2.75 6.20391 2.75 6.79391C2.75 7.72391 2.97 8.73391 3.41 9.77391C3.86 10.8339 4.49 11.9339 5.29 13.0339C6.09 14.1339 7 15.2039 8 16.2139C9 17.2039 10.08 18.1239 11.19 18.9339C12.27 19.7239 13.38 20.3639 14.48 20.8239C16.19 21.5539 17.79 21.7239 19.11 21.1739C19.62 20.9639 20.07 20.6439 20.48 20.1839C20.71 19.9339 20.89 19.6639 21.04 19.3439C21.16 19.0939 21.22 18.8339 21.22 18.5739C21.22 18.4139 21.19 18.2539 21.11 18.0739C21.08 18.0139 21.02 17.9039 20.83 17.7739L17.51 15.4139C17.31 15.2739 17.13 15.1739 16.96 15.1039C16.74 15.0139 16.65 14.9239 16.31 15.1339C16.11 15.2339 15.93 15.3839 15.73 15.5839L14.97 16.3339C14.58 16.7139 13.98 16.8039 13.52 16.6339L13.25 16.5139C12.84 16.2939 12.36 15.9539 11.83 15.5039C11.35 15.0939 10.83 14.6139 10.2 13.9939C9.71 13.4939 9.22 12.9639 8.71 12.3739C8.24 11.8239 7.9 11.3539 7.69 10.9639L7.57 10.6639C7.51 10.4339 7.49 10.3039 7.49 10.1639C7.49 9.80391 7.62 9.48391 7.87 9.23391L8.62 8.45391C8.82 8.25391 8.97 8.06391 9.07 7.89391C9.15 7.76391 9.18 7.65391 9.18 7.55391C9.18 7.47391 9.15 7.35391 9.1 7.23391C9.03 7.07391 8.92 6.89391 8.78 6.70391L6.46 3.42391C6.36 3.28391 6.24 3.18391 6.09 3.11391C5.93 3.04391 5.76 3.00391 5.59 3.00391ZM13.95 15.2639L13.79 15.9439L14.06 15.2439C14.01 15.2339 13.97 15.2439 13.95 15.2639Z" fill="#6C757D"/>
<path d="M18.5 10.0039C18.09 10.0039 17.75 9.66391 17.75 9.25391C17.75 8.89391 17.39 8.14391 16.79 7.50391C16.2 6.87391 15.55 6.50391 15 6.50391C14.59 6.50391 14.25 6.16391 14.25 5.75391C14.25 5.34391 14.59 5.00391 15 5.00391C15.97 5.00391 16.99 5.52391 17.88 6.47391C18.71 7.36391 19.25 8.45391 19.25 9.25391C19.25 9.66391 18.91 10.0039 18.5 10.0039Z" fill="#6C757D"/>
<path d="M22 10.0039C21.59 10.0039 21.25 9.66391 21.25 9.25391C21.25 5.80391 18.45 3.00391 15 3.00391C14.59 3.00391 14.25 2.66391 14.25 2.25391C14.25 1.84391 14.59 1.50391 15 1.50391C19.27 1.50391 22.75 4.98391 22.75 9.25391C22.75 9.66391 22.41 10.0039 22 10.0039Z" fill="#6C757D"/>
</svg>
