<svg width="20" height="20" viewBox="0 0 20 20" fill="none" xmlns="http://www.w3.org/2000/svg">
<path d="M14.9997 4.99917C14.4914 4.99917 14.0248 4.70752 13.7914 4.25754L13.1915 3.04927C12.8082 2.29098 11.8082 1.66602 10.9583 1.66602H9.05004C8.19175 1.66602 7.1918 2.29098 6.80849 3.04927L6.20852 4.25754C5.9752 4.70752 5.50856 4.99917 5.00026 4.99917C3.19202 4.99917 1.75876 6.52409 1.87542 8.32399L2.30873 15.207C2.40873 16.9235 3.33368 18.3318 5.63355 18.3318H14.3664C16.6663 18.3318 17.5829 16.9235 17.6912 15.207L18.1245 8.32399C18.2412 6.52409 16.808 4.99917 14.9997 4.99917ZM8.75005 6.04078H11.2499C11.5916 6.04078 11.8749 6.3241 11.8749 6.66575C11.8749 7.00739 11.5916 7.29071 11.2499 7.29071H8.75005C8.40841 7.29071 8.12509 7.00739 8.12509 6.66575C8.12509 6.3241 8.40841 6.04078 8.75005 6.04078ZM9.99999 15.0986C8.45007 15.0986 7.18347 13.8404 7.18347 12.2821C7.18347 10.7239 8.44174 9.46559 9.99999 9.46559C11.5582 9.46559 12.8165 10.7239 12.8165 12.2821C12.8165 13.8404 11.5499 15.0986 9.99999 15.0986Z" fill="#CD929D"/>
</svg>
