<svg width="22" height="22" viewBox="0 0 22 22" fill="none" xmlns="http://www.w3.org/2000/svg">
<path d="M20.1667 16.7295H13.75C13.3742 16.7295 13.0625 16.4178 13.0625 16.042C13.0625 15.6662 13.3742 15.3545 13.75 15.3545H20.1667C20.5425 15.3545 20.8542 15.6662 20.8542 16.042C20.8542 16.4178 20.5425 16.7295 20.1667 16.7295Z" fill="#CD929D"/>
<path d="M4.58337 16.7295H1.83337C1.45754 16.7295 1.14587 16.4178 1.14587 16.042C1.14587 15.6662 1.45754 15.3545 1.83337 15.3545H4.58337C4.95921 15.3545 5.27087 15.6662 5.27087 16.042C5.27087 16.4178 4.95921 16.7295 4.58337 16.7295Z" fill="#CD929D"/>
<path d="M20.1666 6.64551H17.4166C17.0408 6.64551 16.7291 6.33384 16.7291 5.95801C16.7291 5.58217 17.0408 5.27051 17.4166 5.27051H20.1666C20.5425 5.27051 20.8541 5.58217 20.8541 5.95801C20.8541 6.33384 20.5425 6.64551 20.1666 6.64551Z" fill="#CD929D"/>
<path d="M8.25004 6.64551H1.83337C1.45754 6.64551 1.14587 6.33384 1.14587 5.95801C1.14587 5.58217 1.45754 5.27051 1.83337 5.27051H8.25004C8.62587 5.27051 8.93754 5.58217 8.93754 5.95801C8.93754 6.33384 8.62587 6.64551 8.25004 6.64551Z" fill="#CD929D"/>
<path d="M11.9167 19.4795H6.41671C4.84004 19.4795 3.89587 18.5353 3.89587 16.9587V15.1253C3.89587 13.5487 4.84004 12.6045 6.41671 12.6045H11.9167C13.4934 12.6045 14.4375 13.5487 14.4375 15.1253V16.9587C14.4375 18.5353 13.4934 19.4795 11.9167 19.4795ZM6.41671 13.9795C5.60087 13.9795 5.27087 14.3095 5.27087 15.1253V16.9587C5.27087 17.7745 5.60087 18.1045 6.41671 18.1045H11.9167C12.7325 18.1045 13.0625 17.7745 13.0625 16.9587V15.1253C13.0625 14.3095 12.7325 13.9795 11.9167 13.9795H6.41671Z" fill="#CD929D"/>
<path d="M15.5833 9.39551H10.0833C8.50667 9.39551 7.5625 8.45134 7.5625 6.87467V5.04134C7.5625 3.46467 8.50667 2.52051 10.0833 2.52051H15.5833C17.16 2.52051 18.1042 3.46467 18.1042 5.04134V6.87467C18.1042 8.45134 17.16 9.39551 15.5833 9.39551ZM10.0833 3.89551C9.2675 3.89551 8.9375 4.22551 8.9375 5.04134V6.87467C8.9375 7.69051 9.2675 8.02051 10.0833 8.02051H15.5833C16.3992 8.02051 16.7292 7.69051 16.7292 6.87467V5.04134C16.7292 4.22551 16.3992 3.89551 15.5833 3.89551H10.0833Z" fill="#CD929D"/>
</svg>
