<svg width="24" height="24" viewBox="0 0 24 24" fill="none" xmlns="http://www.w3.org/2000/svg">
<path d="M13.6568 12.0009L18.6569 7.00081C18.7657 6.89203 18.8519 6.76288 18.9108 6.62075C18.9697 6.47861 19 6.32628 19 6.17243C19 6.01859 18.9697 5.86625 18.9108 5.72412C18.8519 5.58199 18.7657 5.45284 18.6569 5.34406C18.5481 5.23527 18.4189 5.14898 18.2768 5.09011C18.1347 5.03123 17.9823 5.00093 17.8285 5.00093C17.6747 5.00093 17.5223 5.03123 17.3802 5.09011C17.2381 5.14898 17.1089 5.23527 17.0001 5.34406L12 10.3442L6.99988 5.34312C6.89109 5.23434 6.76195 5.14805 6.61981 5.08918C6.47768 5.0303 6.32534 5 6.1715 5C6.01766 5 5.86532 5.0303 5.72319 5.08918C5.58105 5.14805 5.45191 5.23434 5.34312 5.34312C5.23434 5.45191 5.14805 5.58105 5.08918 5.72319C5.0303 5.86532 5 6.01766 5 6.1715C5 6.32534 5.0303 6.47768 5.08918 6.61981C5.14805 6.76195 5.23434 6.89109 5.34312 6.99988L10.3432 12L5.34312 17.0001C5.23434 17.1089 5.14805 17.2381 5.08918 17.3802C5.0303 17.5223 5 17.6747 5 17.8285C5 17.9823 5.0303 18.1347 5.08918 18.2768C5.14805 18.4189 5.23434 18.5481 5.34312 18.6569C5.56282 18.8766 5.8608 19 6.1715 19C6.32534 19 6.47768 18.9697 6.61981 18.9108C6.76195 18.852 6.89109 18.7657 6.99988 18.6569L12 13.6568L17.0001 18.6569C17.2198 18.8766 17.5178 19 17.8285 19C18.1392 19 18.4372 18.8766 18.6569 18.6569C18.8766 18.4372 19 18.1392 19 17.8285C19 17.5178 18.8766 17.2198 18.6569 17.0001L13.6568 12.0009Z" fill="#6C757D"/>
</svg>
