<svg width="34" height="26" viewBox="0 0 34 26" fill="none" xmlns="http://www.w3.org/2000/svg">
<path d="M26 20.3004C29.3689 19.9659 32 17.1236 32 13.6667C32 9.65732 28.3178 6.50373 24.3796 7.06771C24.3732 7.06863 24.3669 7.06535 24.364 7.05957C22.8578 4.05916 19.7527 2 16.1667 2C11.3896 2 7.46603 5.65413 7.03861 10.3197C7.0379 10.3275 7.03132 10.3334 7.02353 10.3334C4.2906 10.3311 2 12.5908 2 15.3333C2 18.0948 4.23858 20.3333 7 20.3333H8" stroke="#6C757D" stroke-width="2.25" stroke-linecap="round"/>
<path d="M13.25 17.75L16.4696 14.5303C16.7625 14.2374 17.2374 14.2374 17.5303 14.5303L20.75 17.75" stroke="#6C757D" stroke-width="2.25" stroke-linecap="round"/>
<path d="M17 15.5L17 24.5" stroke="#6C757D" stroke-width="2.25" stroke-linecap="round"/>
</svg>
