<svg width="168" height="168" viewBox="0 0 168 168" fill="none" xmlns="http://www.w3.org/2000/svg">
<path fill-rule="evenodd" clip-rule="evenodd" d="M83.9998 36.6558C74.5904 36.6558 65.3924 39.446 57.5688 44.6735C49.7452 49.901 43.6475 57.3312 40.0467 66.0243C36.4459 74.7173 35.5038 84.283 37.3394 93.5115C39.1751 102.74 43.7061 111.217 50.3595 117.87C57.0129 124.524 65.4899 129.055 74.7184 130.891C83.947 132.726 93.5126 131.784 102.206 128.183C110.899 124.582 118.329 118.485 123.556 110.661C128.784 102.838 131.574 93.6395 131.574 84.2302C131.56 71.6169 126.544 59.5242 117.625 50.6053C108.706 41.6863 96.613 36.6696 83.9998 36.6558ZM83.9998 98.8524C82.856 99.9321 81.3426 100.534 79.7698 100.534C78.1969 100.534 76.6835 99.9321 75.5397 98.8524L58.8809 82.1935L67.3931 73.7858L79.822 86.2146L100.711 65.3258L109.014 73.7858L83.9998 98.8524Z" fill="#CD929D"/>
<path fill-rule="evenodd" clip-rule="evenodd" d="M163.639 71.1222C158.417 63.4978 153.195 55.4556 153.195 55.4556C153.195 55.4556 151.367 46.1078 149.539 37.23C148.621 32.6563 146.371 28.4561 143.073 25.1575C139.774 21.8588 135.574 19.6091 131 18.6911L112.722 14.9311L97.0556 4.48669C93.1787 1.93719 88.6401 0.578613 84.0001 0.578613C79.36 0.578613 74.8214 1.93719 70.9445 4.48669L55.2778 14.9311L37 18.6911C32.4263 19.6091 28.2261 21.8588 24.9275 25.1575C21.6289 28.4561 19.3791 32.6563 18.4612 37.23C16.6334 46.16 14.7012 55.56 14.7012 55.56C14.7012 55.56 9.47893 63.6022 4.25671 71.2267C1.70721 75.1036 0.348633 79.6422 0.348633 84.2822C0.348633 88.9223 1.70721 93.4609 4.25671 97.3378C9.47893 104.962 14.7012 113.004 14.7012 113.004C14.7012 113.004 16.5812 122.404 18.4612 131.334C19.3976 135.889 21.6555 140.067 24.9527 143.345C28.2499 146.624 32.4402 148.858 37 149.769L55.33 153.529L70.9967 163.973C74.8736 166.523 79.4122 167.881 84.0523 167.881C88.6924 167.881 93.2309 166.523 97.1078 163.973L112.774 153.529L131 149.769C135.574 148.851 139.774 146.601 143.073 143.303C146.371 140.004 148.621 135.804 149.539 131.23C151.367 122.3 153.299 112.9 153.299 112.9C153.299 112.9 158.521 104.858 163.743 97.2334C166.277 93.3463 167.618 88.8023 167.599 84.1622C167.581 79.5221 166.204 74.9889 163.639 71.1222ZM84.0001 143.711C72.2358 143.711 60.7357 140.223 50.9541 133.687C41.1725 127.151 33.5487 117.861 29.0467 106.992C24.5447 96.1237 23.3668 84.164 25.6618 72.6258C27.9569 61.0876 33.622 50.4891 41.9405 42.1705C50.2591 33.8519 60.8577 28.1869 72.3959 25.8918C83.9341 23.5967 95.8937 24.7747 106.762 29.2766C117.631 33.7786 126.921 41.4025 133.457 51.1841C139.993 60.9657 143.481 72.4658 143.481 84.23C143.454 99.9969 137.178 115.11 126.029 126.259C114.88 137.408 99.7669 143.684 84.0001 143.711Z" fill="#ECD5D9"/>
</svg>
