<svg width="248" height="247" viewBox="0 0 248 247" fill="none" xmlns="http://www.w3.org/2000/svg">
<g clip-path="url(#clip0_1336_51484)">
<path d="M124 247C192.207 247 247.5 191.707 247.5 123.5C247.5 55.2927 192.207 0 124 0C55.7927 0 0.5 55.2927 0.5 123.5C0.5 191.707 55.7927 247 124 247Z" fill="#F8F8F9"/>
<path d="M158.665 38.4727L60.2246 118.02L177.19 234.985C217.711 215.618 246.02 174.812 247.439 127.247L158.665 38.4727Z" fill="#F5EAEC"/>
<path d="M187.434 169.96L147.183 164.811C142.241 164.179 138.539 159.973 138.539 154.992V136.734H109.461V154.992C109.461 159.973 105.759 164.179 100.818 164.811L60.5658 169.96C48.2443 171.536 39.0137 182.023 39.0137 194.444V213.103C61.1544 234.11 91.0712 246.999 124 246.999C156.929 246.999 186.846 234.11 208.986 213.103V194.444C208.986 182.023 199.756 171.536 187.434 169.96Z" fill="#FFC776"/>
<path d="M187.435 169.96L147.183 164.811C142.242 164.179 138.539 159.973 138.539 154.992V136.734H123.978V246.999C123.985 246.999 123.993 247 124.001 247C156.93 247 186.847 234.11 208.987 213.104V194.444C208.987 182.023 199.757 171.536 187.435 169.96Z" fill="#FFBB61"/>
<path d="M147.717 144.31L140.884 147.989C130.385 153.642 117.749 153.642 107.25 147.989L100.417 144.31C87.7999 137.516 79.9316 124.343 79.9316 110.013V67.8691H168.202V110.013C168.202 124.343 160.334 137.516 147.717 144.31Z" fill="#FED080"/>
<path d="M168.203 67.8691H123.978V152.228C129.791 152.243 135.608 150.831 140.885 147.989L147.717 144.31C160.335 137.516 168.203 124.343 168.203 110.013L168.203 67.8691Z" fill="#FFC776"/>
<path d="M187.435 169.959L153.368 165.602C146.023 173.437 135.587 178.338 124.001 178.338C112.415 178.338 101.978 173.437 94.6334 165.602L60.5668 169.959C48.2453 171.535 39.0146 182.022 39.0146 194.444V213.103C61.1549 234.109 91.0717 246.999 124.001 246.999C156.93 246.999 186.847 234.109 208.987 213.103V194.444C208.987 182.022 199.757 171.535 187.435 169.959Z" fill="#D7A8B0"/>
<path d="M124 246.999C156.929 246.999 186.846 234.109 208.986 213.103V194.444C208.986 182.022 199.756 171.535 187.434 169.959L153.367 165.602C146.023 173.437 135.586 178.338 124 178.338V246.999Z" fill="#CD929D"/>
<path d="M121.905 178.283C111.159 177.732 101.532 172.961 94.6329 165.602L79.9316 167.482L103.21 197.523L124 178.349C123.296 178.349 122.598 178.326 121.905 178.283Z" fill="#CD929D"/>
<path d="M124 178.348L144.79 197.523L168.069 167.482L153.367 165.602C146.468 172.961 136.841 177.731 126.096 178.283C125.403 178.325 124.704 178.348 124 178.348Z" fill="#D7A8B0"/>
<path d="M174.293 80.9272C174.293 53.1513 151.776 30.6348 124 30.6348C96.2245 30.6348 73.708 53.1513 73.708 80.9272C73.708 81.344 73.708 118.021 73.708 118.021H82.71V93.3799C93.1877 81.3401 107.686 73.5702 124 73.5702C140.315 73.5702 154.813 81.3401 165.291 93.3799V118.021H174.293C174.293 118.021 174.293 81.344 174.293 80.9272Z" fill="#FEC007"/>
<path d="M177.348 109H167V78.9911C167 55.2806 147.71 35.9905 124 35.9905C100.289 35.9905 80.9993 55.2806 80.9993 78.9911V109H70.6514V78.9911C70.6514 49.575 94.5833 25.6426 124 25.6426C153.416 25.6426 177.348 49.5745 177.348 78.9911V109Z" fill="#37474F"/>
<path d="M124 25.6406C123.992 25.6406 123.984 25.6411 123.977 25.6411V35.9886C123.984 35.9886 123.992 35.9886 124 35.9886C147.71 35.9886 167 55.2786 167 78.9892V108.998H177.348V78.9892C177.348 49.5726 153.416 25.6406 124 25.6406Z" fill="#263238"/>
<path d="M147.341 141.348H117.907V131H147.341C157.928 131 166.542 122.387 166.542 111.799H176.889C176.889 128.092 163.633 141.348 147.341 141.348Z" fill="#263238"/>
<path d="M81.3609 121.646H70.0467C61.6907 121.646 54.917 114.873 54.917 106.517V88.9285C54.917 80.5725 61.6907 73.7988 70.0467 73.7988H81.3614L81.3609 121.646Z" fill="#CD929D"/>
<path d="M177.954 121.646H166.64V73.7988H177.954C186.31 73.7988 193.084 80.5725 193.084 88.9285V106.517C193.084 114.872 186.31 121.646 177.954 121.646Z" fill="#CD929D"/>
<path d="M121.241 147.214H109.053C103.021 147.214 98.1309 142.324 98.1309 136.292C98.1309 130.259 103.021 125.369 109.053 125.369H121.241C127.273 125.369 132.163 130.259 132.163 136.292C132.163 142.324 127.273 147.214 121.241 147.214Z" fill="#DC2C00"/>
<path d="M123.978 125.713V146.867C128.685 145.652 132.164 141.377 132.164 136.289C132.164 131.202 128.686 126.928 123.978 125.713Z" fill="#B21F02"/>
</g>
<defs>
<clipPath id="clip0_1336_51484">
<rect width="247" height="247" fill="white" transform="translate(0.5)"/>
</clipPath>
</defs>
</svg>
