<svg width="48" height="48" viewBox="0 0 48 48" fill="none" xmlns="http://www.w3.org/2000/svg">
<rect width="48" height="48" rx="10" fill="white"/>
<path d="M34 33.25C34 33.66 33.66 34 33.25 34H14.75C14.34 34 14 33.66 14 33.25C14 32.84 14.34 32.5 14.75 32.5H33.25C33.66 32.5 34 32.84 34 33.25Z" fill="#CD929D"/>
<path d="M27.3899 16.5198L16.6499 27.2598C16.2399 27.6698 15.5799 27.6698 15.1799 27.2598H15.1699C13.7799 25.8598 13.7799 23.5998 15.1699 22.2098L22.3199 15.0598C23.7199 13.6598 25.9799 13.6598 27.3799 15.0598C27.7899 15.4498 27.7899 16.1198 27.3899 16.5198Z" fill="#CD929D"/>
<path d="M32.8199 20.4898L29.7699 17.4398C29.3599 17.0298 28.6999 17.0298 28.2999 17.4398L17.5599 28.1798C17.1499 28.5798 17.1499 29.2398 17.5599 29.6498L20.6099 32.7098C22.0099 34.0998 24.2699 34.0998 25.6699 32.7098L32.8099 25.5598C34.2299 24.1598 34.2299 21.8898 32.8199 20.4898ZM24.7599 29.5198L23.5499 30.7398C23.2999 30.9898 22.8899 30.9898 22.6299 30.7398C22.3799 30.4898 22.3799 30.0798 22.6299 29.8198L23.8499 28.5998C24.0899 28.3598 24.5099 28.3598 24.7599 28.5998C25.0099 28.8498 25.0099 29.2798 24.7599 29.5198ZM28.7299 25.5498L26.2899 27.9998C26.0399 28.2398 25.6299 28.2398 25.3699 27.9998C25.1199 27.7498 25.1199 27.3398 25.3699 27.0798L27.8199 24.6298C28.0599 24.3898 28.4799 24.3898 28.7299 24.6298C28.9799 24.8898 28.9799 25.2998 28.7299 25.5498Z" fill="#CD929D"/>
</svg>
