<svg width="94" height="94" viewBox="0 0 94 94" fill="none" xmlns="http://www.w3.org/2000/svg">
<path fill-rule="evenodd" clip-rule="evenodd" d="M46.997 93.9989C72.8879 93.9989 94.0016 72.8852 94.0016 46.9994C94.0016 21.1136 72.8879 0 46.997 0C21.111 0 -0.00244141 21.1136 -0.00244141 46.9994C-0.00244141 72.8852 21.111 93.9989 46.997 93.9989Z" fill="#E1BDC3"/>
<path fill-rule="evenodd" clip-rule="evenodd" d="M66.5289 33.6348L64.4785 73.2391C64.411 74.5765 63.3127 75.6173 61.9752 75.6173H32.0249C30.6874 75.6173 29.5893 74.5765 29.5216 73.2391L27.4712 33.6348H66.5289Z" fill="white"/>
<path fill-rule="evenodd" clip-rule="evenodd" d="M25.5862 23.6954H41.074C41.4019 20.7186 43.9416 18.3818 46.9964 18.3818C50.0565 18.3818 52.5962 20.7186 52.9241 23.6954H68.4119C70.0304 23.6954 71.3523 25.0173 71.3523 26.6305V29.571H22.646V26.6305C22.646 25.0173 23.9679 23.6954 25.5862 23.6954Z" fill="white"/>
<path fill-rule="evenodd" clip-rule="evenodd" d="M35.0524 40.7916L35.7965 68.5926C35.8174 69.264 36.3794 69.7999 37.0559 69.7843C37.7273 69.7636 38.2581 69.2014 38.2425 68.5249L37.493 40.7291C37.4774 40.0577 36.9101 39.5218 36.2387 39.5374C35.5675 39.5582 35.0314 40.1202 35.0524 40.7916Z" fill="#E1E1E1"/>
<path fill-rule="evenodd" clip-rule="evenodd" d="M58.9456 40.7916L58.2015 68.5926C58.1807 69.264 57.6186 69.7999 56.942 69.7843C56.2706 69.7636 55.7347 69.2014 55.7555 68.5249L56.5049 40.7291C56.5205 40.0577 57.0878 39.5218 57.7592 39.5374C58.4304 39.5582 58.9665 40.1202 58.9456 40.7916Z" fill="#E1E1E1"/>
<path fill-rule="evenodd" clip-rule="evenodd" d="M48.2195 40.7239V68.5301C48.2195 69.2066 47.6729 69.753 46.9966 69.753C46.3252 69.753 45.7788 69.2066 45.7788 68.5301V40.7239C45.7788 40.0525 46.3252 39.501 46.9966 39.501C47.6731 39.501 48.2195 40.0527 48.2195 40.7239Z" fill="#E1E1E1"/>
<path fill-rule="evenodd" clip-rule="evenodd" d="M62.4797 33.6348L60.4293 73.2391C60.3565 74.5765 59.2584 75.6173 57.9209 75.6173H61.975C63.3125 75.6173 64.4106 74.5765 64.4783 73.2391L66.5287 33.6348H62.4797Z" fill="#F7F7F7"/>
<path fill-rule="evenodd" clip-rule="evenodd" d="M64.2745 25.6782C65.8931 25.6782 67.215 27.0001 67.215 28.6133V29.571H71.3523V26.6305C71.3523 25.0173 70.0304 23.6954 68.4118 23.6954C63.2492 23.6954 58.0867 23.6954 52.924 23.6954C52.5961 20.7186 50.0565 18.3818 46.9963 18.3818C43.9415 18.3818 41.4017 20.7186 41.074 23.6954H25.5862C24.3008 23.6954 23.2026 24.528 22.8071 25.6782H64.2745Z" fill="#F5F5F5"/>
<path fill-rule="evenodd" clip-rule="evenodd" d="M66.528 33.6348L64.4776 73.239C64.4101 74.5765 63.3118 75.6173 61.9743 75.6173H57.9202H32.024L57.0511 92.9214C78.1804 88.3209 94.0012 69.5075 94.0012 46.9993C94.0012 44.7978 93.8449 42.6329 93.5536 40.5096L70.5093 24.5742C71.0297 25.105 71.3523 25.8337 71.3523 26.6299V29.5704H67.215H22.646L28.5267 33.6349H62.479H66.528V33.6348Z" fill="#CD929D"/>
</svg>
