<svg width="24" height="25" viewBox="0 0 24 25" fill="none" xmlns="http://www.w3.org/2000/svg">
<path d="M12 23.0033C11.37 23.0033 10.78 22.7633 10.34 22.3133L8.82001 20.7933C8.70001 20.6733 8.38 20.5433 8.22 20.5433H6.06C4.76 20.5433 3.70999 19.4932 3.70999 18.1932V16.0333C3.70999 15.8733 3.57999 15.5533 3.45999 15.4333L1.94 13.9133C1.5 13.4733 1.25 12.8833 1.25 12.2533C1.25 11.6233 1.49 11.0332 1.94 10.5932L3.45999 9.07321C3.57999 8.95321 3.70999 8.63323 3.70999 8.47323V6.31332C3.70999 5.01332 4.76 3.96322 6.06 3.96322H8.22C8.38 3.96322 8.70001 3.83322 8.82001 3.71322L10.34 2.1932C11.22 1.3132 12.78 1.3132 13.66 2.1932L15.18 3.71322C15.3 3.83322 15.62 3.96322 15.78 3.96322H17.94C19.24 3.96322 20.29 5.01332 20.29 6.31332V8.47323C20.29 8.63323 20.42 8.95321 20.54 9.07321L22.06 10.5932C22.5 11.0332 22.75 11.6233 22.75 12.2533C22.75 12.8833 22.51 13.4733 22.06 13.9133L20.54 15.4333C20.42 15.5533 20.29 15.8733 20.29 16.0333V18.1932C20.29 19.4932 19.24 20.5433 17.94 20.5433H15.78C15.62 20.5433 15.3 20.6733 15.18 20.7933L13.66 22.3133C13.22 22.7633 12.63 23.0033 12 23.0033ZM4.51999 14.3733C4.91999 14.7733 5.20999 15.4733 5.20999 16.0333V18.1932C5.20999 18.6632 5.59 19.0433 6.06 19.0433H8.22C8.78 19.0433 9.48001 19.3332 9.88 19.7332L11.4 21.2533C11.72 21.5733 12.28 21.5733 12.6 21.2533L14.12 19.7332C14.52 19.3332 15.22 19.0433 15.78 19.0433H17.94C18.41 19.0433 18.79 18.6632 18.79 18.1932V16.0333C18.79 15.4733 19.08 14.7733 19.48 14.3733L21 12.8532C21.16 12.6932 21.25 12.4833 21.25 12.2533C21.25 12.0233 21.16 11.8133 21 11.6533L19.48 10.1333C19.08 9.73327 18.79 9.03323 18.79 8.47323V6.31332C18.79 5.84332 18.41 5.46322 17.94 5.46322H15.78C15.22 5.46322 14.52 5.17328 14.12 4.77328L12.6 3.25326C12.28 2.93326 11.72 2.93326 11.4 3.25326L9.88 4.77328C9.48001 5.17328 8.78 5.46322 8.22 5.46322H6.06C5.59 5.46322 5.20999 5.84332 5.20999 6.31332V8.47323C5.20999 9.03323 4.91999 9.73327 4.51999 10.1333L3 11.6533C2.84 11.8133 2.75 12.0233 2.75 12.2533C2.75 12.4833 2.84 12.6932 3 12.8532L4.51999 14.3733Z" fill="#6C757D"/>
<path d="M15.0002 16.2539C14.4402 16.2539 13.9902 15.8039 13.9902 15.2539C13.9902 14.7039 14.4402 14.2539 14.9902 14.2539C15.5402 14.2539 15.9902 14.7039 15.9902 15.2539C15.9902 15.8039 15.5502 16.2539 15.0002 16.2539Z" fill="#6C757D"/>
<path d="M9.01001 10.2539C8.45001 10.2539 8 9.80391 8 9.25391C8 8.70391 8.45 8.25391 9 8.25391C9.55 8.25391 10 8.70391 10 9.25391C10 9.80391 9.56001 10.2539 9.01001 10.2539Z" fill="#6C757D"/>
<path d="M8.99994 16.0034C8.80994 16.0034 8.61994 15.9334 8.46994 15.7834C8.17994 15.4934 8.17994 15.0134 8.46994 14.7234L14.4699 8.72336C14.7599 8.43336 15.2399 8.43336 15.5299 8.72336C15.8199 9.01336 15.8199 9.49342 15.5299 9.78342L9.52994 15.7834C9.37994 15.9334 9.18994 16.0034 8.99994 16.0034Z" fill="#6C757D"/>
</svg>
