<svg width="24" height="24" viewBox="0 0 24 24" fill="none" xmlns="http://www.w3.org/2000/svg">
<path fill-rule="evenodd" clip-rule="evenodd" d="M20.86 9.22L13.86 2.22C13.7195 2.07931 13.5288 2.00018 13.33 2H10.33C9.06501 1.99997 7.85226 2.50454 6.96059 3.40183C6.06893 4.29913 5.57201 5.51503 5.58 6.78V10.4C5.58 10.8142 5.91579 11.15 6.33 11.15C6.74421 11.15 7.08 10.8142 7.08 10.4V6.78C7.08 4.98507 8.53507 3.53 10.33 3.53H12.58V7.78C12.5855 9.29651 13.8135 10.5245 15.33 10.53H19.58V16.78C19.5745 18.5726 18.1226 20.0245 16.33 20.03H13.27C12.8558 20.03 12.52 20.3658 12.52 20.78C12.52 21.1942 12.8558 21.53 13.27 21.53H16.33C18.9534 21.53 21.08 19.4034 21.08 16.78V9.78C21.088 9.57081 21.0083 9.36778 20.86 9.22ZM14.08 7.78V4.56L18.55 9.03H15.33C14.6396 9.03 14.08 8.47036 14.08 7.78Z" fill="#6C757D"/>
<path d="M8.19 13.92C7.99027 13.9173 7.79792 13.9954 7.65667 14.1367C7.51543 14.2779 7.43728 14.4703 7.44 14.67V16.47L6.64 17.32C6.49705 17.4593 6.41643 17.6504 6.41643 17.85C6.41643 18.0496 6.49705 18.2407 6.64 18.38C6.78052 18.5207 6.97115 18.5998 7.17 18.6C7.34697 18.5817 7.51258 18.5042 7.64 18.38L8.7 17.32C8.83888 17.1783 8.9177 16.9884 8.92 16.79V14.67C8.92014 14.2635 8.59638 13.9308 8.19 13.92Z" fill="#6C757D"/>
<path fill-rule="evenodd" clip-rule="evenodd" d="M3 16.55C3 13.7886 5.23858 11.55 8 11.55C9.32608 11.55 10.5979 12.0768 11.5355 13.0145C12.4732 13.9521 13 15.2239 13 16.55C13 19.3114 10.7614 21.55 8 21.55C5.23858 21.55 3 19.3114 3 16.55ZM4.57174 17.9762C5.15396 19.35 6.50805 20.2362 8 20.22C10.0168 20.1981 11.6401 18.5569 11.64 16.54C11.6399 15.048 10.7389 13.7036 9.35888 13.1365C7.97884 12.5693 6.39292 12.8915 5.34367 13.9523C4.29441 15.0131 3.98952 16.6025 4.57174 17.9762Z" fill="#6C757D"/>
</svg>
