<svg width="18" height="18" viewBox="0 0 18 18" fill="none" xmlns="http://www.w3.org/2000/svg">
<path d="M11.25 17.0625H6.75C2.6775 17.0625 0.9375 15.3225 0.9375 11.25V6.75C0.9375 2.6775 2.6775 0.9375 6.75 0.9375H10.5C10.8075 0.9375 11.0625 1.1925 11.0625 1.5C11.0625 1.8075 10.8075 2.0625 10.5 2.0625H6.75C3.2925 2.0625 2.0625 3.2925 2.0625 6.75V11.25C2.0625 14.7075 3.2925 15.9375 6.75 15.9375H11.25C14.7075 15.9375 15.9375 14.7075 15.9375 11.25V7.5C15.9375 7.1925 16.1925 6.9375 16.5 6.9375C16.8075 6.9375 17.0625 7.1925 17.0625 7.5V11.25C17.0625 15.3225 15.3225 17.0625 11.25 17.0625Z" fill="#6C757D"/>
<path d="M16.5 8.06335H13.5C10.935 8.06335 9.9375 7.06585 9.9375 4.50085V1.50085C9.9375 1.27585 10.0725 1.06585 10.2825 0.983346C10.4925 0.893346 10.7325 0.945846 10.8975 1.10335L16.8975 7.10335C17.055 7.26085 17.1075 7.50835 17.0175 7.71835C16.9275 7.92835 16.725 8.06335 16.5 8.06335ZM11.0625 2.85835V4.50085C11.0625 6.43585 11.565 6.93835 13.5 6.93835H15.1425L11.0625 2.85835Z" fill="#6C757D"/>
<path d="M9.75 10.3125H5.25C4.9425 10.3125 4.6875 10.0575 4.6875 9.75C4.6875 9.4425 4.9425 9.1875 5.25 9.1875H9.75C10.0575 9.1875 10.3125 9.4425 10.3125 9.75C10.3125 10.0575 10.0575 10.3125 9.75 10.3125Z" fill="#6C757D"/>
<path d="M8.25 13.3125H5.25C4.9425 13.3125 4.6875 13.0575 4.6875 12.75C4.6875 12.4425 4.9425 12.1875 5.25 12.1875H8.25C8.5575 12.1875 8.8125 12.4425 8.8125 12.75C8.8125 13.0575 8.5575 13.3125 8.25 13.3125Z" fill="#6C757D"/>
</svg>
