<svg width="24" height="25" viewBox="0 0 24 25" fill="none" xmlns="http://www.w3.org/2000/svg">
<path fill-rule="evenodd" clip-rule="evenodd" d="M20.86 9.47391L13.86 2.47391C13.7195 2.33321 13.5288 2.25408 13.33 2.25391H10.33C9.06501 2.25388 7.85226 2.75844 6.96059 3.65574C6.06893 4.55304 5.57201 5.76894 5.58 7.03391V10.6539C5.58 11.0681 5.91579 11.4039 6.33 11.4039C6.74421 11.4039 7.08 11.0681 7.08 10.6539V7.03391C7.08 5.23898 8.53507 3.78391 10.33 3.78391H12.58V8.03391C12.5855 9.55041 13.8135 10.7784 15.33 10.7839H19.58V17.0339C19.5745 18.8266 18.1226 20.2784 16.33 20.2839H13.27C12.8558 20.2839 12.52 20.6197 12.52 21.0339C12.52 21.4481 12.8558 21.7839 13.27 21.7839H16.33C18.9534 21.7839 21.08 19.6573 21.08 17.0339V10.0339C21.088 9.82472 21.0083 9.62169 20.86 9.47391ZM14.08 8.03391V4.81391L18.55 9.28391H15.33C14.6396 9.28391 14.08 8.72426 14.08 8.03391Z" fill="#6C757D"/>
<path d="M8.19 14.1739C7.99027 14.1712 7.79792 14.2493 7.65667 14.3906C7.51543 14.5318 7.43728 14.7242 7.44 14.9239V16.7239L6.64 17.5739C6.49705 17.7132 6.41643 17.9043 6.41643 18.1039C6.41643 18.3035 6.49705 18.4946 6.64 18.6339C6.78052 18.7746 6.97115 18.8537 7.17 18.8539C7.34697 18.8356 7.51258 18.7581 7.64 18.6339L8.7 17.5739C8.83888 17.4322 8.9177 17.2423 8.92 17.0439V14.9239C8.92014 14.5174 8.59638 14.1847 8.19 14.1739Z" fill="#6C757D"/>
<path fill-rule="evenodd" clip-rule="evenodd" d="M3 16.8039C3 14.0425 5.23858 11.8039 8 11.8039C9.32608 11.8039 10.5979 12.3307 11.5355 13.2684C12.4732 14.2061 13 15.4778 13 16.8039C13 19.5653 10.7614 21.8039 8 21.8039C5.23858 21.8039 3 19.5653 3 16.8039ZM4.57174 18.2301C5.15396 19.6039 6.50805 20.4901 8 20.4739C10.0168 20.452 11.6401 18.8108 11.64 16.7939C11.6399 15.3019 10.7389 13.9575 9.35888 13.3904C7.97884 12.8232 6.39292 13.1454 5.34367 14.2062C4.29441 15.267 3.98952 16.8564 4.57174 18.2301Z" fill="#6C757D"/>
</svg>
