<svg width="24" height="25" viewBox="0 0 24 25" fill="none" xmlns="http://www.w3.org/2000/svg">
<path d="M5.54 19.7735C4.93 19.7735 4.36 19.5635 3.95 19.1735C3.43 18.6835 3.18 17.9435 3.27 17.1435L3.64 13.9035C3.71 13.2935 4.08 12.4835 4.51 12.0435L12.72 3.35347C14.77 1.18347 16.91 1.12347 19.08 3.17347C21.25 5.22347 21.31 7.36347 19.26 9.53347L11.05 18.2235C10.63 18.6735 9.85 19.0935 9.24 19.1935L6.02 19.7435C5.85 19.7535 5.7 19.7735 5.54 19.7735ZM15.93 3.16347C15.16 3.16347 14.49 3.64347 13.81 4.36347L5.6 13.0635C5.4 13.2735 5.17 13.7735 5.13 14.0635L4.76 17.3035C4.72 17.6335 4.8 17.9035 4.98 18.0735C5.16 18.2435 5.43 18.3035 5.76 18.2535L8.98 17.7035C9.27 17.6535 9.75 17.3935 9.95 17.1835L18.16 8.49347C19.4 7.17347 19.85 5.95347 18.04 4.25347C17.24 3.48347 16.55 3.16347 15.93 3.16347Z" fill="#6C757D"/>
<path d="M17.34 11.2035C17.32 11.2035 17.29 11.2035 17.27 11.2035C14.15 10.8935 11.64 8.52347 11.16 5.42347C11.1 5.01347 11.38 4.63347 11.79 4.56347C12.2 4.50347 12.58 4.78347 12.65 5.19347C13.03 7.61347 14.99 9.47347 17.43 9.71347C17.84 9.75347 18.14 10.1235 18.1 10.5335C18.05 10.9135 17.72 11.2035 17.34 11.2035Z" fill="#6C757D"/>
<path d="M21 23.0035H3C2.59 23.0035 2.25 22.6635 2.25 22.2535C2.25 21.8435 2.59 21.5035 3 21.5035H21C21.41 21.5035 21.75 21.8435 21.75 22.2535C21.75 22.6635 21.41 23.0035 21 23.0035Z" fill="#6C757D"/>
</svg>
