<svg width="20" height="20" viewBox="0 0 20 20" fill="none" xmlns="http://www.w3.org/2000/svg">
<path d="M7.8916 12.7342C7.73327 12.7342 7.57493 12.6759 7.44993 12.5509C6.7666 11.8676 6.3916 10.9592 6.3916 10.0009C6.3916 8.00924 8.00827 6.39258 9.99993 6.39258C10.9583 6.39258 11.8666 6.76758 12.5499 7.45091C12.6666 7.56758 12.7333 7.72591 12.7333 7.89258C12.7333 8.05924 12.6666 8.21758 12.5499 8.33424L8.33327 12.5509C8.20827 12.6759 8.04993 12.7342 7.8916 12.7342ZM9.99993 7.64258C8.69993 7.64258 7.6416 8.70091 7.6416 10.0009C7.6416 10.4176 7.74993 10.8176 7.94993 11.1676L11.1666 7.95091C10.8166 7.75091 10.4166 7.64258 9.99993 7.64258Z" fill="#6C757D"/>
<path d="M4.66654 15.4241C4.52487 15.4241 4.37487 15.3741 4.2582 15.2741C3.36654 14.5158 2.56654 13.5824 1.8832 12.4991C0.99987 11.1241 0.99987 8.88242 1.8832 7.49909C3.91654 4.31576 6.87487 2.48242 9.99987 2.48242C11.8332 2.48242 13.6415 3.11576 15.2249 4.30742C15.4999 4.51576 15.5582 4.90742 15.3499 5.18242C15.1415 5.45742 14.7499 5.51575 14.4749 5.30742C13.1082 4.27409 11.5582 3.73242 9.99987 3.73242C7.3082 3.73242 4.7332 5.34909 2.9332 8.17409C2.3082 9.14909 2.3082 10.8491 2.9332 11.8241C3.5582 12.7991 4.27487 13.6408 5.06654 14.3241C5.32487 14.5491 5.3582 14.9408 5.1332 15.2074C5.01654 15.3491 4.84154 15.4241 4.66654 15.4241Z" fill="#6C757D"/>
<path d="M10.0001 17.5176C8.8918 17.5176 7.80847 17.2926 6.7668 16.8509C6.45013 16.7176 6.30013 16.3509 6.43347 16.0342C6.5668 15.7176 6.93347 15.5676 7.25013 15.7009C8.13347 16.0759 9.05847 16.2676 9.9918 16.2676C12.6835 16.2676 15.2585 14.6509 17.0585 11.8259C17.6835 10.8509 17.6835 9.15089 17.0585 8.17589C16.8001 7.76756 16.5168 7.37589 16.2168 7.00923C16.0001 6.74256 16.0418 6.35089 16.3085 6.12589C16.5751 5.90923 16.9668 5.94256 17.1918 6.21756C17.5168 6.61756 17.8335 7.05089 18.1168 7.50089C19.0001 8.87589 19.0001 11.1176 18.1168 12.5009C16.0835 15.6842 13.1251 17.5176 10.0001 17.5176Z" fill="#6C757D"/>
<path d="M10.5751 13.5576C10.2835 13.5576 10.0168 13.3493 9.95848 13.0493C9.89181 12.7076 10.1168 12.3826 10.4585 12.3243C11.3751 12.1576 12.1418 11.391 12.3085 10.4743C12.3751 10.1326 12.7001 9.91598 13.0418 9.97431C13.3835 10.041 13.6085 10.366 13.5418 10.7076C13.2751 12.1493 12.1251 13.291 10.6918 13.5576C10.6501 13.5493 10.6168 13.5576 10.5751 13.5576Z" fill="#6C757D"/>
<path d="M1.66686 18.9592C1.50853 18.9592 1.3502 18.9009 1.2252 18.7759C0.983529 18.5342 0.983529 18.1342 1.2252 17.8926L7.45019 11.6676C7.69186 11.4259 8.09186 11.4259 8.33353 11.6676C8.57519 11.9092 8.57519 12.3092 8.33353 12.5509L2.10853 18.7759C1.98353 18.9009 1.8252 18.9592 1.66686 18.9592Z" fill="#6C757D"/>
<path d="M12.1083 8.51589C11.9499 8.51589 11.7916 8.45755 11.6666 8.33255C11.4249 8.09089 11.4249 7.69088 11.6666 7.44922L17.8916 1.22422C18.1333 0.982552 18.5333 0.982552 18.7749 1.22422C19.0166 1.46589 19.0166 1.86589 18.7749 2.10755L12.5499 8.33255C12.4249 8.45755 12.2666 8.51589 12.1083 8.51589Z" fill="#6C757D"/>
</svg>
