<svg width="54" height="53" viewBox="0 0 54 53" fill="none" xmlns="http://www.w3.org/2000/svg">
<rect x="0.625" width="53" height="53" rx="26.5" fill="#FAF5F6"/>
<path d="M39.0502 26.4992C39.0502 19.9405 33.6839 14.5742 27.1252 14.5742C20.5664 14.5742 15.2002 19.9405 15.2002 26.4992C15.2002 32.4617 19.523 37.3808 25.1874 38.2752V29.9277H22.2061V26.4992H25.1874V23.8161C25.1874 20.8348 26.9761 19.1952 29.6593 19.1952C31.0008 19.1952 32.3424 19.4933 32.3424 19.4933V22.4745H30.8518C29.3611 22.4745 28.9139 23.3689 28.9139 24.2633V26.4992H32.1933L31.5971 29.9277H28.7649V38.4242C34.7274 37.5298 39.0502 32.4617 39.0502 26.4992Z" fill="#CD929D"/>
</svg>
