<svg width="24" height="24" viewBox="0 0 24 24" fill="none" xmlns="http://www.w3.org/2000/svg">
<path d="M10.9298 22.7495C10.4498 22.7495 9.96985 22.6296 9.52985 22.3896C8.63985 21.8896 8.1098 20.9995 8.1098 19.9895V14.6396C8.1098 14.1296 7.77979 13.3795 7.46979 12.9895L3.6698 8.99954C3.0398 8.36954 2.5498 7.26953 2.5498 6.45953V4.13956C2.5498 2.52956 3.76982 1.26953 5.31982 1.26953H18.6598C20.1898 1.26953 21.4298 2.50955 21.4298 4.03955V6.25955C21.4298 7.30955 20.7998 8.51953 20.1998 9.10953C19.9098 9.39953 19.4298 9.39953 19.1398 9.10953C18.8498 8.81953 18.8498 8.33953 19.1398 8.04953C19.5098 7.67953 19.9298 6.84955 19.9298 6.25955V4.03955C19.9298 3.33955 19.3598 2.76953 18.6598 2.76953H5.31982C4.60982 2.76953 4.0498 3.36956 4.0498 4.13956V6.45953C4.0498 6.82953 4.34981 7.55955 4.73981 7.94955L8.58984 11.9995C9.09984 12.6295 9.59979 13.6896 9.59979 14.6396V19.9895C9.59979 20.6495 10.0498 20.9695 10.2498 21.0795C10.6798 21.3195 11.1898 21.3095 11.5898 21.0695L12.9898 20.1696C13.2798 19.9996 13.5598 19.4495 13.5598 19.0795C13.5598 18.6695 13.8998 18.3295 14.3098 18.3295C14.7198 18.3295 15.0598 18.6695 15.0598 19.0795C15.0598 19.9795 14.4998 21.0095 13.7898 21.4395L12.3998 22.3395C11.9498 22.6095 11.4398 22.7495 10.9298 22.7495Z" fill="#666666"/>
<path d="M16.0701 17.2691C13.8901 17.2691 12.1201 15.4992 12.1201 13.3192C12.1201 11.1392 13.8901 9.36914 16.0701 9.36914C18.2501 9.36914 20.0201 11.1392 20.0201 13.3192C20.0201 15.4992 18.2501 17.2691 16.0701 17.2691ZM16.0701 10.8691C14.7201 10.8691 13.6201 11.9692 13.6201 13.3192C13.6201 14.6692 14.7201 15.7691 16.0701 15.7691C17.4201 15.7691 18.5201 14.6692 18.5201 13.3192C18.5201 11.9692 17.4201 10.8691 16.0701 10.8691Z" fill="#666666"/>
<path d="M19.87 17.8705C19.68 17.8705 19.4901 17.8005 19.3401 17.6505L18.3401 16.6505C18.0501 16.3605 18.0501 15.8805 18.3401 15.5905C18.6301 15.3005 19.1101 15.3005 19.4001 15.5905L20.4001 16.5905C20.6901 16.8805 20.6901 17.3605 20.4001 17.6505C20.2601 17.7905 20.06 17.8705 19.87 17.8705Z" fill="#666666"/>
</svg>
