<svg width="21" height="20" viewBox="0 0 21 20" fill="none" xmlns="http://www.w3.org/2000/svg">
<path d="M18.7914 10.6082C19.0355 10.3989 19.1575 10.2943 19.2023 10.1698C19.2415 10.0605 19.2415 9.94102 19.2023 9.83174C19.1575 9.70724 19.0355 9.60262 18.7914 9.39337L10.3206 2.13275C9.9004 1.77256 9.69029 1.59246 9.5124 1.58804C9.3578 1.58421 9.21012 1.65213 9.11242 1.77201C9 1.90995 9 2.18668 9 2.74016V7.03541C6.86532 7.40887 4.91159 8.49054 3.45971 10.1146C1.87682 11.8853 1.00123 14.1767 1 16.5517V17.1637C2.04934 15.8996 3.35951 14.8773 4.84076 14.1667C6.1467 13.5402 7.55842 13.1691 9 13.0713V17.2614C9 17.8149 9 18.0916 9.11242 18.2296C9.21012 18.3494 9.3578 18.4174 9.5124 18.4135C9.69029 18.4091 9.9004 18.229 10.3206 17.8688L18.7914 10.6082Z" stroke="white" stroke-width="1.6" stroke-linecap="round" stroke-linejoin="round"/>
</svg>
