<svg width="40" height="40" viewBox="0 0 40 40" fill="none" xmlns="http://www.w3.org/2000/svg">
<rect width="40" height="40" rx="10" fill="#1BA40F" fill-opacity="0.05"/>
<path d="M21.8002 18.9495C21.6102 18.9495 21.4202 18.8795 21.2702 18.7295C20.9802 18.4395 20.9802 17.9595 21.2702 17.6695L29.4702 9.46945C29.7602 9.17945 30.2402 9.17945 30.5302 9.46945C30.8202 9.75945 30.8202 10.2395 30.5302 10.5295L22.3302 18.7295C22.1902 18.8695 22.0002 18.9495 21.8002 18.9495Z" fill="#1BA40F"/>
<path d="M25.83 19.7499H21C20.59 19.7499 20.25 19.4099 20.25 18.9999V14.1699C20.25 13.7599 20.59 13.4199 21 13.4199C21.41 13.4199 21.75 13.7599 21.75 14.1699V18.2499H25.83C26.24 18.2499 26.58 18.5899 26.58 18.9999C26.58 19.4099 26.24 19.7499 25.83 19.7499Z" fill="#1BA40F"/>
<path d="M23 30.75H17C11.57 30.75 9.25 28.43 9.25 23V17C9.25 11.57 11.57 9.25 17 9.25H19C19.41 9.25 19.75 9.59 19.75 10C19.75 10.41 19.41 10.75 19 10.75H17C12.39 10.75 10.75 12.39 10.75 17V23C10.75 27.61 12.39 29.25 17 29.25H23C27.61 29.25 29.25 27.61 29.25 23V21C29.25 20.59 29.59 20.25 30 20.25C30.41 20.25 30.75 20.59 30.75 21V23C30.75 28.43 28.43 30.75 23 30.75Z" fill="#1BA40F"/>
</svg>
