<svg width="20" height="21" viewBox="0 0 20 21" fill="none" xmlns="http://www.w3.org/2000/svg">
<path d="M9.99999 18.5413C9.74166 18.5413 9.49166 18.508 9.28332 18.433C6.09999 17.3413 1.04166 13.4663 1.04166 7.74134C1.04166 4.82467 3.39999 2.45801 6.29999 2.45801C7.70832 2.45801 9.02499 3.00801 9.99999 3.99134C10.975 3.00801 12.2917 2.45801 13.7 2.45801C16.6 2.45801 18.9583 4.83301 18.9583 7.74134C18.9583 13.4747 13.9 17.3413 10.7167 18.433C10.5083 18.508 10.2583 18.5413 9.99999 18.5413ZM6.29999 3.70801C4.09166 3.70801 2.29166 5.51634 2.29166 7.74134C2.29166 13.433 7.76666 16.5997 9.69166 17.258C9.84166 17.308 10.1667 17.308 10.3167 17.258C12.2333 16.5997 17.7167 13.4413 17.7167 7.74134C17.7167 5.51634 15.9167 3.70801 13.7083 3.70801C12.4417 3.70801 11.2667 4.29967 10.5083 5.32467C10.275 5.64134 9.74166 5.64134 9.50832 5.32467C8.73332 4.29134 7.56666 3.70801 6.29999 3.70801Z" fill="#6C757D"/>
</svg>
