<svg width="49" height="49" viewBox="0 0 49 49" fill="none" xmlns="http://www.w3.org/2000/svg">
<path d="M44.6633 34.1995L38.3648 19.4694C37.2177 16.7729 35.5073 15.2436 33.5553 15.1429C31.6235 15.0423 29.7521 16.3906 28.3233 18.9663L24.4999 25.8283C23.695 27.2772 22.548 28.1425 21.3004 28.2431C20.0326 28.3638 18.7649 27.6998 17.7386 26.3918L17.2959 25.8283C15.8671 24.0374 14.0963 23.1721 12.2852 23.3532C10.4741 23.5343 8.92466 24.7819 7.89839 26.8143L4.41709 33.7568C3.16946 36.2722 3.29019 39.1901 4.75918 41.5646C6.22817 43.9391 8.7838 45.3679 11.5809 45.3679H37.258C39.9545 45.3679 42.4699 44.0196 43.959 41.7658C45.4883 39.512 45.7298 36.6747 44.6633 34.1995Z" fill="#D7A8B0"/>
<path d="M14.3783 17.2155C18.1347 17.2155 21.1799 14.1703 21.1799 10.4139C21.1799 6.65749 18.1347 3.6123 14.3783 3.6123C10.6218 3.6123 7.57666 6.65749 7.57666 10.4139C7.57666 14.1703 10.6218 17.2155 14.3783 17.2155Z" fill="#D7A8B0"/>
</svg>
