<svg width="54" height="53" viewBox="0 0 54 53" fill="none" xmlns="http://www.w3.org/2000/svg">
<rect x="0.875" width="53" height="53" rx="26.5" fill="#FAF5F6"/>
<path d="M27.199 23.2414C25.4915 23.2414 24.1073 24.6256 24.1073 26.3331C24.1073 28.0406 25.4915 29.4247 27.199 29.4247C28.9065 29.4247 30.2907 28.0406 30.2907 26.3331C30.2936 25.5122 29.9688 24.7241 29.3884 24.1437C28.8079 23.5632 28.0198 23.2385 27.199 23.2414Z" fill="#CD929D"/>
<path fill-rule="evenodd" clip-rule="evenodd" d="M31.45 15.457H22.959C19.3001 15.457 16.334 18.4231 16.334 22.082V30.5731C16.334 34.232 19.3001 37.1981 22.959 37.1981H31.45C35.1089 37.1981 38.075 34.232 38.075 30.5731V22.082C38.075 18.4231 35.1089 15.457 31.45 15.457ZM27.199 31.0699C24.5854 31.0639 22.4682 28.9467 22.4621 26.3331C22.4576 24.4107 23.6128 22.6754 25.388 21.9377C27.1631 21.1999 29.208 21.6054 30.5673 22.9648C31.9266 24.3241 32.3321 26.3689 31.5944 28.1441C30.8567 29.9193 29.1213 31.0744 27.199 31.0699ZM31.323 20.8804C31.5121 21.3312 31.955 21.6227 32.4438 21.6183C33.1024 21.6183 33.6363 21.0844 33.6363 20.4258C33.6407 19.937 33.3492 19.4941 32.8984 19.305C32.4477 19.1159 31.9274 19.2181 31.5818 19.5638C31.2361 19.9094 31.1339 20.4297 31.323 20.8804Z" fill="#CD929D"/>
</svg>
