<svg width="16" height="17" viewBox="0 0 16 17" fill="none" xmlns="http://www.w3.org/2000/svg">
<path fill-rule="evenodd" clip-rule="evenodd" d="M11.675 2.6775H11.75C13.8211 2.6775 15.5 4.35643 15.5 6.4275V13.1775C15.5 15.2486 13.8211 16.9275 11.75 16.9275H4.25C3.25544 16.9275 2.30161 16.5324 1.59835 15.8292C0.895088 15.1259 0.5 14.1721 0.5 13.1775V6.4275C0.5 4.35643 2.17893 2.6775 4.25 2.6775H4.325V1.3125C4.325 1.00184 4.57684 0.75 4.8875 0.75C5.19816 0.75 5.45 1.00184 5.45 1.3125V2.6775H10.55V1.3125C10.55 1.00184 10.8018 0.75 11.1125 0.75C11.4232 0.75 11.675 1.00184 11.675 1.3125V2.6775ZM4.625 7.245H11.375C11.6857 7.245 11.9375 6.99316 11.9375 6.6825C11.9375 6.37184 11.6857 6.12 11.375 6.12H4.625C4.31434 6.12 4.0625 6.37184 4.0625 6.6825C4.0625 6.99316 4.31434 7.245 4.625 7.245Z" fill="#CD929D"/>
</svg>
