<svg width="16" height="17" viewBox="0 0 16 17" fill="none" xmlns="http://www.w3.org/2000/svg">
<path d="M11.375 6.12H4.625C4.31434 6.12 4.0625 6.37184 4.0625 6.6825C4.0625 6.99316 4.31434 7.245 4.625 7.245H11.375C11.6857 7.245 11.9375 6.99316 11.9375 6.6825C11.9375 6.37184 11.6857 6.12 11.375 6.12Z" fill="#6C757D"/>
<path fill-rule="evenodd" clip-rule="evenodd" d="M11.6675 2.6775H11.75C13.8211 2.6775 15.5 4.35643 15.5 6.4275V13.1775C15.5 15.2486 13.8211 16.9275 11.75 16.9275H4.25C3.25544 16.9275 2.30161 16.5324 1.59835 15.8292C0.895088 15.1259 0.5 14.1721 0.5 13.1775V6.4275C0.5 4.35643 2.17893 2.6775 4.25 2.6775H4.3175V1.3125C4.3175 1.00184 4.56934 0.75 4.88 0.75C5.19066 0.75 5.4425 1.00184 5.4425 1.3125V2.6775H10.5425V1.3125C10.5425 1.00184 10.7943 0.75 11.105 0.75C11.4157 0.75 11.6675 1.00184 11.6675 1.3125V2.6775ZM11.75 15.8025C13.1997 15.8025 14.375 14.6272 14.375 13.1775V6.4275C14.375 4.97775 13.1997 3.8025 11.75 3.8025H4.25C2.80025 3.8025 1.625 4.97775 1.625 6.4275V13.1775C1.625 14.6272 2.80025 15.8025 4.25 15.8025H11.75Z" fill="#6C757D"/>
</svg>
