<svg width="95" height="28" viewBox="0 0 95 28" fill="none" xmlns="http://www.w3.org/2000/svg">
<rect width="95" height="28" rx="6" fill="#F59E0B" fill-opacity="0.3"/>
<path d="M25.7085 19.3914L24.3335 19.7164C24.0252 19.7914 23.7835 20.0248 23.7169 20.3331L23.4252 21.5581C23.2669 22.2248 22.4169 22.4331 21.9752 21.9081L19.4835 19.0414C19.2835 18.8081 19.3919 18.4414 19.6919 18.3664C21.1669 18.0081 22.4919 17.1831 23.4669 16.0081C23.6252 15.8164 23.9085 15.7914 24.0835 15.9664L25.9335 17.8164C26.5669 18.4498 26.3419 19.2414 25.7085 19.3914Z" fill="#212529"/>
<path d="M10.2496 19.3914L11.6246 19.7164C11.933 19.7914 12.1746 20.0248 12.2413 20.3331L12.533 21.5581C12.6913 22.2248 13.5413 22.4331 13.983 21.9081L16.4746 19.0414C16.6746 18.8081 16.5663 18.4414 16.2663 18.3664C14.7913 18.0081 13.4663 17.1831 12.4913 16.0081C12.333 15.8164 12.0496 15.7914 11.8746 15.9664L10.0246 17.8164C9.39131 18.4498 9.61631 19.2414 10.2496 19.3914Z" fill="#212529"/>
<path d="M18.0003 5.66699C14.7753 5.66699 12.167 8.27533 12.167 11.5003C12.167 12.7087 12.5253 13.817 13.142 14.742C14.042 16.0753 15.467 17.017 17.1253 17.2587C17.4087 17.3087 17.7003 17.3337 18.0003 17.3337C18.3003 17.3337 18.592 17.3087 18.8753 17.2587C20.5337 17.017 21.9587 16.0753 22.8587 14.742C23.4753 13.817 23.8337 12.7087 23.8337 11.5003C23.8337 8.27533 21.2253 5.66699 18.0003 5.66699ZM20.5503 11.317L19.8587 12.0087C19.742 12.1253 19.6753 12.3503 19.717 12.517L19.917 13.3753C20.0753 14.0503 19.717 14.317 19.117 13.9587L18.2837 13.467C18.1337 13.3753 17.8837 13.3753 17.7337 13.467L16.9003 13.9587C16.3003 14.3087 15.942 14.0503 16.1003 13.3753L16.3003 12.517C16.3337 12.3587 16.2753 12.1253 16.1587 12.0087L15.4503 11.317C15.042 10.9087 15.1753 10.5003 15.742 10.4087L16.6337 10.2587C16.7837 10.2337 16.9587 10.1003 17.0253 9.96699L17.517 8.98366C17.7837 8.45033 18.217 8.45033 18.4837 8.98366L18.9753 9.96699C19.042 10.1003 19.217 10.2337 19.3753 10.2587L20.267 10.4087C20.8253 10.5003 20.9587 10.9087 20.5503 11.317Z" fill="#212529"/>
<path d="M35.192 18V9.912H36.32V18H35.192ZM32.36 10.704V9.672H39.14V10.704H32.36ZM41.314 18.12C40.754 18.12 40.25 17.988 39.802 17.724C39.354 17.46 38.998 17.104 38.734 16.656C38.47 16.2 38.338 15.692 38.338 15.132C38.338 14.58 38.47 14.084 38.734 13.644C38.998 13.196 39.354 12.84 39.802 12.576C40.25 12.312 40.754 12.18 41.314 12.18C41.866 12.18 42.366 12.312 42.814 12.576C43.27 12.832 43.63 13.184 43.894 13.632C44.158 14.08 44.29 14.58 44.29 15.132C44.29 15.692 44.158 16.2 43.894 16.656C43.63 17.104 43.27 17.46 42.814 17.724C42.366 17.988 41.866 18.12 41.314 18.12ZM41.314 17.076C41.674 17.076 41.994 16.992 42.274 16.824C42.554 16.656 42.774 16.428 42.934 16.14C43.094 15.844 43.174 15.508 43.174 15.132C43.174 14.764 43.09 14.436 42.922 14.148C42.762 13.86 42.542 13.636 42.262 13.476C41.99 13.308 41.674 13.224 41.314 13.224C40.954 13.224 40.634 13.308 40.354 13.476C40.074 13.636 39.854 13.86 39.694 14.148C39.534 14.436 39.454 14.764 39.454 15.132C39.454 15.508 39.534 15.844 39.694 16.14C39.854 16.428 40.074 16.656 40.354 16.824C40.634 16.992 40.954 17.076 41.314 17.076ZM48.5068 18.12C48.0748 18.12 47.6828 18.032 47.3308 17.856C46.9868 17.672 46.7108 17.42 46.5028 17.1C46.2948 16.78 46.1788 16.416 46.1548 16.008V14.292C46.1788 13.876 46.2948 13.512 46.5028 13.2C46.7188 12.88 46.9988 12.632 47.3428 12.456C47.6948 12.272 48.0828 12.18 48.5068 12.18C49.0268 12.18 49.4948 12.312 49.9108 12.576C50.3348 12.84 50.6668 13.196 50.9068 13.644C51.1468 14.092 51.2668 14.596 51.2668 15.156C51.2668 15.716 51.1468 16.22 50.9068 16.668C50.6668 17.116 50.3348 17.472 49.9108 17.736C49.4948 17.992 49.0268 18.12 48.5068 18.12ZM45.5068 20.388V12.3H46.5868V13.8L46.3828 15.18L46.5868 16.572V20.388H45.5068ZM48.3268 17.1C48.6868 17.1 49.0028 17.016 49.2748 16.848C49.5468 16.68 49.7628 16.452 49.9228 16.164C50.0828 15.868 50.1628 15.528 50.1628 15.144C50.1628 14.768 50.0828 14.432 49.9228 14.136C49.7628 13.84 49.5468 13.612 49.2748 13.452C49.0028 13.284 48.6908 13.2 48.3388 13.2C47.9788 13.2 47.6628 13.284 47.3908 13.452C47.1188 13.612 46.9068 13.84 46.7548 14.136C46.6028 14.432 46.5268 14.772 46.5268 15.156C46.5268 15.532 46.5988 15.868 46.7428 16.164C46.8948 16.452 47.1068 16.68 47.3788 16.848C47.6588 17.016 47.9748 17.1 48.3268 17.1ZM55.9353 14.376V13.428H58.1913C58.6793 13.428 59.0553 13.304 59.3193 13.056C59.5833 12.808 59.7153 12.472 59.7153 12.048C59.7153 11.648 59.5833 11.316 59.3193 11.052C59.0633 10.788 58.6913 10.656 58.2033 10.656H55.9353V9.672H58.2393C58.7673 9.672 59.2273 9.776 59.6193 9.984C60.0113 10.184 60.3113 10.46 60.5193 10.812C60.7353 11.164 60.8433 11.568 60.8433 12.024C60.8433 12.496 60.7353 12.908 60.5193 13.26C60.3113 13.612 60.0113 13.888 59.6193 14.088C59.2273 14.28 58.7673 14.376 58.2393 14.376H55.9353ZM55.1793 18V9.672H56.3073V18H55.1793ZM59.9793 18L56.9553 14.268L58.0233 13.896L61.4073 18H59.9793ZM64.6183 18.12C64.0983 18.12 63.6263 17.992 63.2023 17.736C62.7783 17.472 62.4423 17.116 62.1943 16.668C61.9543 16.22 61.8343 15.716 61.8343 15.156C61.8343 14.596 61.9543 14.092 62.1943 13.644C62.4423 13.196 62.7743 12.84 63.1903 12.576C63.6143 12.312 64.0903 12.18 64.6183 12.18C65.0503 12.18 65.4343 12.272 65.7703 12.456C66.1143 12.632 66.3903 12.88 66.5983 13.2C66.8063 13.512 66.9223 13.876 66.9463 14.292V16.008C66.9223 16.416 66.8063 16.78 66.5983 17.1C66.3983 17.42 66.1263 17.672 65.7823 17.856C65.4463 18.032 65.0583 18.12 64.6183 18.12ZM64.7983 17.1C65.3343 17.1 65.7663 16.92 66.0943 16.56C66.4223 16.192 66.5863 15.724 66.5863 15.156C66.5863 14.764 66.5103 14.424 66.3583 14.136C66.2143 13.84 66.0063 13.612 65.7343 13.452C65.4623 13.284 65.1463 13.2 64.7863 13.2C64.4263 13.2 64.1063 13.284 63.8263 13.452C63.5543 13.62 63.3383 13.852 63.1783 14.148C63.0263 14.436 62.9503 14.768 62.9503 15.144C62.9503 15.528 63.0263 15.868 63.1783 16.164C63.3383 16.452 63.5583 16.68 63.8383 16.848C64.1183 17.016 64.4383 17.1 64.7983 17.1ZM66.5143 18V16.464L66.7183 15.072L66.5143 13.692V12.3H67.6063V18H66.5143ZM70.0313 18V9.912H71.1113V18H70.0313ZM68.6273 13.284V12.3H72.5153V13.284H68.6273ZM76.0375 18.12C75.4695 18.12 74.9575 17.992 74.5015 17.736C74.0455 17.472 73.6855 17.116 73.4215 16.668C73.1575 16.22 73.0255 15.712 73.0255 15.144C73.0255 14.584 73.1535 14.08 73.4095 13.632C73.6735 13.184 74.0255 12.832 74.4655 12.576C74.9135 12.312 75.4135 12.18 75.9655 12.18C76.4935 12.18 76.9575 12.3 77.3575 12.54C77.7655 12.78 78.0815 13.112 78.3055 13.536C78.5375 13.96 78.6535 14.44 78.6535 14.976C78.6535 15.056 78.6495 15.144 78.6415 15.24C78.6335 15.328 78.6175 15.432 78.5935 15.552H73.7815V14.652H78.0175L77.6215 15C77.6215 14.616 77.5535 14.292 77.4175 14.028C77.2815 13.756 77.0895 13.548 76.8415 13.404C76.5935 13.252 76.2935 13.176 75.9415 13.176C75.5735 13.176 75.2495 13.256 74.9695 13.416C74.6895 13.576 74.4735 13.8 74.3215 14.088C74.1695 14.376 74.0935 14.716 74.0935 15.108C74.0935 15.508 74.1735 15.86 74.3335 16.164C74.4935 16.46 74.7215 16.692 75.0175 16.86C75.3135 17.02 75.6535 17.1 76.0375 17.1C76.3575 17.1 76.6495 17.044 76.9135 16.932C77.1855 16.82 77.4175 16.652 77.6095 16.428L78.3055 17.136C78.0335 17.456 77.6975 17.7 77.2975 17.868C76.9055 18.036 76.4855 18.12 76.0375 18.12ZM82.2431 18.12C81.7151 18.12 81.2431 17.992 80.8271 17.736C80.4111 17.472 80.0791 17.116 79.8311 16.668C79.5911 16.22 79.4711 15.716 79.4711 15.156C79.4711 14.596 79.5911 14.092 79.8311 13.644C80.0791 13.196 80.4111 12.84 80.8271 12.576C81.2431 12.312 81.7151 12.18 82.2431 12.18C82.6671 12.18 83.0511 12.272 83.3951 12.456C83.7391 12.632 84.0151 12.88 84.2231 13.2C84.4391 13.512 84.5591 13.876 84.5831 14.292V16.008C84.5591 16.416 84.4431 16.78 84.2351 17.1C84.0271 17.42 83.7511 17.672 83.4071 17.856C83.0631 18.032 82.6751 18.12 82.2431 18.12ZM82.4231 17.1C82.7831 17.1 83.0951 17.016 83.3591 16.848C83.6311 16.68 83.8431 16.452 83.9951 16.164C84.1471 15.868 84.2231 15.532 84.2231 15.156C84.2231 14.764 84.1431 14.424 83.9831 14.136C83.8311 13.848 83.6191 13.62 83.3471 13.452C83.0831 13.284 82.7711 13.2 82.4111 13.2C82.0511 13.2 81.7351 13.284 81.4631 13.452C81.1911 13.62 80.9751 13.852 80.8151 14.148C80.6631 14.436 80.5871 14.768 80.5871 15.144C80.5871 15.528 80.6631 15.868 80.8151 16.164C80.9751 16.452 81.1911 16.68 81.4631 16.848C81.7431 17.016 82.0631 17.1 82.4231 17.1ZM85.2431 18H84.1511V16.464L84.3551 15.072L84.1511 13.692V9.432H85.2431V18Z" fill="#212529"/>
</svg>
