<svg width="54" height="53" viewBox="0 0 54 53" fill="none" xmlns="http://www.w3.org/2000/svg">
<rect x="0.125" width="53" height="53" rx="26.5" fill="#FAF5F6"/>
<g clip-path="url(#clip0_1336_51525)">
<path d="M35.9002 14.1113C36.603 14.1113 37.2771 14.3905 37.774 14.8875C38.271 15.3845 38.5502 16.0585 38.5502 16.7613V35.3113C38.5502 36.0142 38.271 36.6882 37.774 37.1852C37.2771 37.6821 36.603 37.9613 35.9002 37.9613H17.3502C16.6474 37.9613 15.9733 37.6821 15.4764 37.1852C14.9794 36.6882 14.7002 36.0142 14.7002 35.3113V16.7613C14.7002 16.0585 14.9794 15.3845 15.4764 14.8875C15.9733 14.3905 16.6474 14.1113 17.3502 14.1113H35.9002ZM35.2377 34.6488V27.6263C35.2377 26.4807 34.7826 25.382 33.9725 24.572C33.1625 23.7619 32.0638 23.3068 30.9182 23.3068C29.7919 23.3068 28.4802 23.9958 27.8442 25.0293V23.5586H24.1474V34.6488H27.8442V28.1166C27.8442 27.0963 28.6657 26.2616 29.6859 26.2616C30.1779 26.2616 30.6497 26.457 30.9976 26.8049C31.3455 27.1528 31.5409 27.6246 31.5409 28.1166V34.6488H35.2377ZM19.8412 21.4783C20.4316 21.4783 20.9978 21.2438 21.4152 20.8263C21.8327 20.4089 22.0672 19.8427 22.0672 19.2523C22.0672 18.0201 21.0734 17.0131 19.8412 17.0131C19.2473 17.0131 18.6777 17.249 18.2578 17.6689C17.8379 18.0889 17.6019 18.6584 17.6019 19.2523C17.6019 20.4846 18.6089 21.4783 19.8412 21.4783ZM21.6829 34.6488V23.5586H18.0127V34.6488H21.6829Z" fill="#CD929D"/>
</g>
<defs>
<clipPath id="clip0_1336_51525">
<rect width="23.85" height="23.85" fill="white" transform="translate(14.7002 14.5742)"/>
</clipPath>
</defs>
</svg>
