<svg width="28" height="28" viewBox="0 0 28 28" fill="none" xmlns="http://www.w3.org/2000/svg">
<rect width="28" height="28" rx="4" fill="#FAF5F6"/>
<path d="M14 20.875C10.2083 20.875 7.125 17.7917 7.125 14C7.125 10.2083 10.2083 7.125 14 7.125C17.7917 7.125 20.875 10.2083 20.875 14C20.875 17.7917 17.7917 20.875 14 20.875ZM14 8.375C10.9 8.375 8.375 10.9 8.375 14C8.375 17.1 10.9 19.625 14 19.625C17.1 19.625 19.625 17.1 19.625 14C19.625 10.9 17.1 8.375 14 8.375Z" fill="#CD929D"/>
<path d="M14 17.125C12.275 17.125 10.875 15.725 10.875 14C10.875 12.275 12.275 10.875 14 10.875C15.725 10.875 17.125 12.275 17.125 14C17.125 15.725 15.725 17.125 14 17.125ZM14 12.125C12.9667 12.125 12.125 12.9667 12.125 14C12.125 15.0333 12.9667 15.875 14 15.875C15.0333 15.875 15.875 15.0333 15.875 14C15.875 12.9667 15.0333 12.125 14 12.125Z" fill="#CD929D"/>
<path d="M14 7.95817C13.6583 7.95817 13.375 7.67484 13.375 7.33317V5.6665C13.375 5.32484 13.6583 5.0415 14 5.0415C14.3417 5.0415 14.625 5.32484 14.625 5.6665V7.33317C14.625 7.67484 14.3417 7.95817 14 7.95817Z" fill="#CD929D"/>
<path d="M7.33329 14.625H5.66663C5.32496 14.625 5.04163 14.3417 5.04163 14C5.04163 13.6583 5.32496 13.375 5.66663 13.375H7.33329C7.67496 13.375 7.95829 13.6583 7.95829 14C7.95829 14.3417 7.67496 14.625 7.33329 14.625Z" fill="#CD929D"/>
<path d="M14 22.9582C13.6583 22.9582 13.375 22.6748 13.375 22.3332V20.6665C13.375 20.3248 13.6583 20.0415 14 20.0415C14.3417 20.0415 14.625 20.3248 14.625 20.6665V22.3332C14.625 22.6748 14.3417 22.9582 14 22.9582Z" fill="#CD929D"/>
<path d="M22.3333 14.625H20.6666C20.325 14.625 20.0416 14.3417 20.0416 14C20.0416 13.6583 20.325 13.375 20.6666 13.375H22.3333C22.675 13.375 22.9583 13.6583 22.9583 14C22.9583 14.3417 22.675 14.625 22.3333 14.625Z" fill="#CD929D"/>
</svg>
