<svg width="20" height="20" viewBox="0 0 20 20" fill="none" xmlns="http://www.w3.org/2000/svg">
<path d="M15 8.95964C14.6583 8.95964 14.375 8.6763 14.375 8.33464V6.66797C14.375 4.04297 13.6333 2.29297 10 2.29297C6.36667 2.29297 5.625 4.04297 5.625 6.66797V8.33464C5.625 8.6763 5.34167 8.95964 5 8.95964C4.65833 8.95964 4.375 8.6763 4.375 8.33464V6.66797C4.375 4.2513 4.95833 1.04297 10 1.04297C15.0417 1.04297 15.625 4.2513 15.625 6.66797V8.33464C15.625 8.6763 15.3417 8.95964 15 8.95964Z" fill="#6C757D"/>
<path d="M9.99984 16.0417C8.50817 16.0417 7.2915 14.825 7.2915 13.3333C7.2915 11.8417 8.50817 10.625 9.99984 10.625C11.4915 10.625 12.7082 11.8417 12.7082 13.3333C12.7082 14.825 11.4915 16.0417 9.99984 16.0417ZM9.99984 11.875C9.19984 11.875 8.5415 12.5333 8.5415 13.3333C8.5415 14.1333 9.19984 14.7917 9.99984 14.7917C10.7998 14.7917 11.4582 14.1333 11.4582 13.3333C11.4582 12.5333 10.7998 11.875 9.99984 11.875Z" fill="#6C757D"/>
<path d="M14.1665 18.957H5.83317C2.15817 18.957 1.0415 17.8404 1.0415 14.1654V12.4987C1.0415 8.8237 2.15817 7.70703 5.83317 7.70703H14.1665C17.8415 7.70703 18.9582 8.8237 18.9582 12.4987V14.1654C18.9582 17.8404 17.8415 18.957 14.1665 18.957ZM5.83317 8.95703C2.84984 8.95703 2.2915 9.5237 2.2915 12.4987V14.1654C2.2915 17.1404 2.84984 17.707 5.83317 17.707H14.1665C17.1498 17.707 17.7082 17.1404 17.7082 14.1654V12.4987C17.7082 9.5237 17.1498 8.95703 14.1665 8.95703H5.83317Z" fill="#6C757D"/>
</svg>
