<svg width="94" height="94" viewBox="0 0 94 94" fill="none" xmlns="http://www.w3.org/2000/svg">
<g clip-path="url(#clip0_851_47672)">
<path d="M78.7959 78.8079C96.3619 61.242 96.3619 32.7619 78.7959 15.196C61.2299 -2.37001 32.7499 -2.37001 15.1839 15.196C-2.38204 32.7619 -2.38204 61.242 15.1839 78.8079C32.7499 96.3739 61.2299 96.3739 78.7959 78.8079Z" fill="#E1BDC3"/>
<path fill-rule="evenodd" clip-rule="evenodd" d="M27.5547 69.1028L50.3124 91.8606C71.0018 90.3544 87.8065 74.855 91.3076 54.7838L61.4281 24.9043H27.5547V69.1028Z" fill="#CD929D"/>
<path fill-rule="evenodd" clip-rule="evenodd" d="M55.9199 63.5947H33.0621V30.4127H55.9199V36.3657H61.4281V24.9043H27.5547V69.1028H61.4281V57.6391H55.9199V63.5947Z" fill="white"/>
<path fill-rule="evenodd" clip-rule="evenodd" d="M65.5479 37.002L61.652 40.896L65.094 44.3387H44.6768V49.8464H65.094L61.652 53.2889L65.5479 57.1831L75.6375 47.0925L65.5479 37.002Z" fill="white"/>
</g>
<defs>
<clipPath id="clip0_851_47672">
<rect width="94" height="94" fill="white"/>
</clipPath>
</defs>
</svg>
