<svg width="24" height="25" viewBox="0 0 24 25" fill="none" xmlns="http://www.w3.org/2000/svg">
<path d="M8.75999 1.98344L8.88999 1.98344C13.33 1.98344 15.47 3.73344 15.84 7.65344C15.88 8.06344 15.58 8.43344 15.16 8.47344C14.76 8.51344 14.38 8.20344 14.34 7.79344C14.05 4.65344 12.57 3.48344 8.87999 3.48344L8.74999 3.48344C4.67999 3.48344 3.23999 4.92344 3.23999 8.99344L3.23999 15.5134C3.23998 19.5834 4.67999 21.0234 8.74998 21.0234L8.87998 21.0234C12.59 21.0234 14.07 19.8334 14.34 16.6334C14.39 16.2234 14.74 15.9134 15.16 15.9534C15.58 15.9834 15.88 16.3534 15.85 16.7634C15.51 20.7434 13.36 22.5234 8.88999 22.5234L8.75998 22.5234C3.84999 22.5234 1.74998 20.4234 1.74999 15.5134L1.74999 8.99344C1.74999 4.08344 3.84999 1.98344 8.75999 1.98344Z" fill="#6C757D"/>
<path d="M9 11.5039L20.38 11.5039C20.79 11.5039 21.13 11.8439 21.13 12.2539C21.13 12.6639 20.79 13.0039 20.38 13.0039L9 13.0039C8.59 13.0039 8.25 12.6639 8.25 12.2539C8.25 11.8439 8.59001 11.5039 9 11.5039Z" fill="#6C757D"/>
<path d="M18.1501 8.15406C18.3401 8.15406 18.5301 8.22406 18.6801 8.37406L22.0301 11.7241C22.3201 12.0141 22.3201 12.4941 22.0301 12.7841L18.6801 16.1341C18.3901 16.4241 17.9101 16.4241 17.6201 16.1341C17.3301 15.8441 17.3301 15.3641 17.6201 15.0741L20.4401 12.2541L17.6201 9.43406C17.3301 9.14406 17.3301 8.66406 17.6201 8.37406C17.7601 8.22406 17.9601 8.15406 18.1501 8.15406Z" fill="#6C757D"/>
</svg>
