<svg width="20" height="20" viewBox="0 0 20 20" fill="none" xmlns="http://www.w3.org/2000/svg">
<path d="M17.7083 15.3914L16.3333 15.7164C16.025 15.7914 15.7833 16.0248 15.7166 16.3331L15.425 17.5581C15.2666 18.2248 14.4166 18.4331 13.975 17.9081L11.4833 15.0414C11.2833 14.8081 11.3916 14.4414 11.6916 14.3664C13.1666 14.0081 14.4916 13.1831 15.4666 12.0081C15.625 11.8164 15.9083 11.7914 16.0833 11.9664L17.9333 13.8164C18.5666 14.4498 18.3416 15.2414 17.7083 15.3914Z" fill="#212529"/>
<path d="M2.24989 15.3914L3.62489 15.7164C3.93322 15.7914 4.17489 16.0248 4.24156 16.3331L4.53322 17.5581C4.69156 18.2248 5.54156 18.4331 5.98322 17.9081L8.47489 15.0414C8.67489 14.8081 8.56656 14.4414 8.26656 14.3664C6.79156 14.0081 5.46656 13.1831 4.49156 12.0081C4.33322 11.8164 4.04989 11.7914 3.87489 11.9664L2.02489 13.8164C1.39156 14.4498 1.61656 15.2414 2.24989 15.3914Z" fill="#212529"/>
<path d="M9.99996 1.6665C6.77496 1.6665 4.16663 4.27484 4.16663 7.49984C4.16663 8.70817 4.52496 9.8165 5.14163 10.7415C6.04163 12.0748 7.46663 13.0165 9.12496 13.2582C9.40829 13.3082 9.69996 13.3332 9.99996 13.3332C10.3 13.3332 10.5916 13.3082 10.875 13.2582C12.5333 13.0165 13.9583 12.0748 14.8583 10.7415C15.475 9.8165 15.8333 8.70817 15.8333 7.49984C15.8333 4.27484 13.225 1.6665 9.99996 1.6665ZM12.55 7.3165L11.8583 8.00817C11.7416 8.12484 11.675 8.34984 11.7166 8.5165L11.9166 9.37484C12.075 10.0498 11.7166 10.3165 11.1166 9.95817L10.2833 9.4665C10.1333 9.37484 9.88329 9.37484 9.73329 9.4665L8.89996 9.95817C8.29996 10.3082 7.94163 10.0498 8.09996 9.37484L8.29996 8.5165C8.33329 8.35817 8.27496 8.12484 8.15829 8.00817L7.44996 7.3165C7.04163 6.90817 7.17496 6.49984 7.74163 6.40817L8.63329 6.25817C8.78329 6.23317 8.95829 6.09984 9.02496 5.9665L9.51663 4.98317C9.78329 4.44984 10.2166 4.44984 10.4833 4.98317L10.975 5.9665C11.0416 6.09984 11.2166 6.23317 11.375 6.25817L12.2666 6.40817C12.825 6.49984 12.9583 6.90817 12.55 7.3165Z" fill="#212529"/>
</svg>
