<svg width="24" height="25" viewBox="0 0 24 25" fill="none" xmlns="http://www.w3.org/2000/svg">
<path d="M13.05 16.5041H11.17C9.84001 16.5041 8.75 15.3841 8.75 14.0041C8.75 13.5941 9.09 13.2541 9.5 13.2541C9.91 13.2541 10.25 13.5941 10.25 14.0041C10.25 14.5541 10.66 15.0041 11.17 15.0041H13.05C13.44 15.0041 13.75 14.6541 13.75 14.2241C13.75 13.6841 13.6 13.6041 13.26 13.4841L10.25 12.4341C9.61 12.2141 8.75 11.7441 8.75 10.2741C8.75 9.02414 9.74001 7.99414 10.95 7.99414H12.83C14.16 7.99414 15.25 9.11414 15.25 10.4941C15.25 10.9041 14.91 11.2441 14.5 11.2441C14.09 11.2441 13.75 10.9041 13.75 10.4941C13.75 9.94414 13.34 9.49414 12.83 9.49414H10.95C10.56 9.49414 10.25 9.84414 10.25 10.2741C10.25 10.8141 10.4 10.8941 10.74 11.0141L13.75 12.0641C14.39 12.2841 15.25 12.7541 15.25 14.2241C15.25 15.4841 14.26 16.5041 13.05 16.5041Z" fill="#6C757D"/>
<path d="M12 17.5039C11.59 17.5039 11.25 17.1639 11.25 16.7539V7.75391C11.25 7.34391 11.59 7.00391 12 7.00391C12.41 7.00391 12.75 7.34391 12.75 7.75391V16.7539C12.75 17.1639 12.41 17.5039 12 17.5039Z" fill="#6C757D"/>
<path d="M12 23.0039C6.07 23.0039 1.25 18.1839 1.25 12.2539C1.25 6.32391 6.07 1.50391 12 1.50391C12.41 1.50391 12.75 1.84391 12.75 2.25391C12.75 2.66391 12.41 3.00391 12 3.00391C6.9 3.00391 2.75 7.15391 2.75 12.2539C2.75 17.3539 6.9 21.5039 12 21.5039C17.1 21.5039 21.25 17.3539 21.25 12.2539C21.25 11.8439 21.59 11.5039 22 11.5039C22.41 11.5039 22.75 11.8439 22.75 12.2539C22.75 18.1839 17.93 23.0039 12 23.0039Z" fill="#6C757D"/>
<path d="M21 8.00391H17C16.59 8.00391 16.25 7.66391 16.25 7.25391V3.25391C16.25 2.84391 16.59 2.50391 17 2.50391C17.41 2.50391 17.75 2.84391 17.75 3.25391V6.50391H21C21.41 6.50391 21.75 6.84391 21.75 7.25391C21.75 7.66391 21.41 8.00391 21 8.00391Z" fill="#6C757D"/>
<path d="M16.9999 8.00336C16.8099 8.00336 16.6199 7.93336 16.4699 7.78336C16.1799 7.49336 16.1799 7.01336 16.4699 6.72336L21.4699 1.72336C21.7599 1.43336 22.2399 1.43336 22.5299 1.72336C22.8199 2.01336 22.8199 2.49336 22.5299 2.78336L17.5299 7.78336C17.3799 7.93336 17.1899 8.00336 16.9999 8.00336Z" fill="#6C757D"/>
</svg>
