<svg width="42" height="42" viewBox="0 0 42 42" fill="none" xmlns="http://www.w3.org/2000/svg">
<rect width="42" height="42" rx="10" fill="#F5EAEC"/>
<path d="M21 12.667C18.8167 12.667 17.0417 14.442 17.0417 16.6253C17.0417 18.767 18.7167 20.5003 20.9 20.5753C20.9667 20.567 21.0334 20.567 21.0834 20.5753C21.1 20.5753 21.1084 20.5753 21.125 20.5753C21.1334 20.5753 21.1334 20.5753 21.1417 20.5753C23.275 20.5003 24.95 18.767 24.9584 16.6253C24.9584 14.442 23.1834 12.667 21 12.667Z" fill="#CD929D"/>
<path d="M25.2334 22.7914C22.9084 21.2414 19.1167 21.2414 16.775 22.7914C15.7167 23.4997 15.1334 24.4581 15.1334 25.4831C15.1334 26.5081 15.7167 27.4581 16.7667 28.1581C17.9334 28.9414 19.4667 29.3331 21 29.3331C22.5334 29.3331 24.0667 28.9414 25.2334 28.1581C26.2834 27.4497 26.8667 26.4997 26.8667 25.4664C26.8584 24.4414 26.2834 23.4914 25.2334 22.7914Z" fill="#CD929D"/>
</svg>
