<svg width="18" height="18" viewBox="0 0 18 18" fill="none" xmlns="http://www.w3.org/2000/svg">
<path d="M12 17.0625H6C3.2625 17.0625 1.6875 15.4875 1.6875 12.75V5.25C1.6875 2.5125 3.2625 0.9375 6 0.9375H12C14.7375 0.9375 16.3125 2.5125 16.3125 5.25V12.75C16.3125 15.4875 14.7375 17.0625 12 17.0625ZM6 2.0625C3.855 2.0625 2.8125 3.105 2.8125 5.25V12.75C2.8125 14.895 3.855 15.9375 6 15.9375H12C14.145 15.9375 15.1875 14.895 15.1875 12.75V5.25C15.1875 3.105 14.145 2.0625 12 2.0625H6Z" fill="#6C757D"/>
<path d="M13.8752 6.9375H12.3752C11.2352 6.9375 10.3127 6.015 10.3127 4.875V3.375C10.3127 3.0675 10.5677 2.8125 10.8752 2.8125C11.1827 2.8125 11.4377 3.0675 11.4377 3.375V4.875C11.4377 5.3925 11.8577 5.8125 12.3752 5.8125H13.8752C14.1827 5.8125 14.4377 6.0675 14.4377 6.375C14.4377 6.6825 14.1827 6.9375 13.8752 6.9375Z" fill="#6C757D"/>
<path d="M8.99976 10.3125H5.99976C5.69226 10.3125 5.43726 10.0575 5.43726 9.75C5.43726 9.4425 5.69226 9.1875 5.99976 9.1875H8.99976C9.30726 9.1875 9.56226 9.4425 9.56226 9.75C9.56226 10.0575 9.30726 10.3125 8.99976 10.3125Z" fill="#6C757D"/>
<path d="M11.9998 13.3125H5.99976C5.69226 13.3125 5.43726 13.0575 5.43726 12.75C5.43726 12.4425 5.69226 12.1875 5.99976 12.1875H11.9998C12.3073 12.1875 12.5623 12.4425 12.5623 12.75C12.5623 13.0575 12.3073 13.3125 11.9998 13.3125Z" fill="#6C757D"/>
</svg>
