<svg width="28" height="27" viewBox="0 0 25 24" fill="none" xmlns="http://www.w3.org/2000/svg">
<path d="M22.19 14.0598L21.06 12.1798C20.81 11.7698 20.59 10.9798 20.59 10.4998V8.6298C20.59 4.9998 17.64 2.0498 14.02 2.0498C10.39 2.0598 7.43996 4.9998 7.43996 8.6298V10.4898C7.43996 10.9698 7.21996 11.7598 6.97996 12.1698L5.84996 14.0498C5.41996 14.7798 5.31996 15.6098 5.58996 16.3298C5.85996 17.0598 6.46996 17.6398 7.26996 17.8998C8.34996 18.2598 9.43996 18.5198 10.55 18.7098C10.66 18.7298 10.77 18.7398 10.88 18.7598C11.02 18.7798 11.17 18.7998 11.32 18.8198C11.58 18.8598 11.84 18.8898 12.11 18.9098C12.74 18.9698 13.38 18.9998 14.02 18.9998C14.65 18.9998 15.28 18.9698 15.9 18.9098C16.13 18.8898 16.36 18.8698 16.58 18.8398C16.76 18.8198 16.94 18.7998 17.12 18.7698C17.23 18.7598 17.34 18.7398 17.45 18.7198C18.57 18.5398 19.68 18.2598 20.76 17.8998C21.53 17.6398 22.12 17.0598 22.4 16.3198C22.68 15.5698 22.6 14.7498 22.19 14.0598ZM14.75 9.9998C14.75 10.4198 14.41 10.7598 13.99 10.7598C13.57 10.7598 13.23 10.4198 13.23 9.9998V6.89981C13.23 6.4798 13.57 6.1398 13.99 6.1398C14.41 6.1398 14.75 6.4798 14.75 6.89981V9.9998Z" fill="#212529"/>
<path d="M16.8299 20.01C16.4099 21.17 15.2999 22 13.9999 22C13.2099 22 12.4299 21.68 11.8799 21.11C11.5599 20.81 11.3199 20.41 11.1799 20C11.3099 20.02 11.4399 20.03 11.5799 20.05C11.8099 20.08 12.0499 20.11 12.2899 20.13C12.8599 20.18 13.4399 20.21 14.0199 20.21C14.5899 20.21 15.1599 20.18 15.7199 20.13C15.9299 20.11 16.1399 20.1 16.3399 20.07C16.4999 20.05 16.6599 20.03 16.8299 20.01Z" fill="#212529"/>
</svg>
