<svg width="15" height="14" viewBox="0 0 15 14" fill="none" xmlns="http://www.w3.org/2000/svg">
<path d="M12.0208 6.41667H7.79167V2.1875C7.79167 1.94588 7.59579 1.75 7.35417 1.75C7.11254 1.75 6.91667 1.94588 6.91667 2.1875V6.41667H2.6875C2.44588 6.41667 2.25 6.61254 2.25 6.85417C2.25 7.09579 2.44588 7.29167 2.6875 7.29167H6.91667V11.5208C6.91667 11.7625 7.11254 11.9583 7.35417 11.9583C7.59579 11.9583 7.79167 11.7625 7.79167 11.5208V7.29167H12.0208C12.2625 7.29167 12.4583 7.09579 12.4583 6.85417C12.4583 6.61254 12.2625 6.41667 12.0208 6.41667Z" fill="#CD929D" stroke="#CD929D" stroke-width="0.5"/>
</svg>
