<svg width="42" height="42" viewBox="0 0 42 42" fill="none" xmlns="http://www.w3.org/2000/svg">
<rect width="42" height="42" rx="10" fill="#F5EAEC"/>
<path d="M18.5 12.667C16.3167 12.667 14.5417 14.442 14.5417 16.6253C14.5417 18.767 16.2167 20.5003 18.4 20.5753C18.4667 20.567 18.5334 20.567 18.5834 20.5753C18.6 20.5753 18.6084 20.5753 18.625 20.5753C18.6334 20.5753 18.6334 20.5753 18.6417 20.5753C20.775 20.5003 22.45 18.767 22.4584 16.6253C22.4584 14.442 20.6834 12.667 18.5 12.667Z" fill="#CD929D"/>
<path d="M22.7334 22.792C20.4084 21.242 16.6167 21.242 14.275 22.792C13.2167 23.5003 12.6334 24.4587 12.6334 25.4837C12.6334 26.5087 13.2167 27.4587 14.2667 28.1587C15.4334 28.942 16.9667 29.3337 18.5 29.3337C20.0334 29.3337 21.5667 28.942 22.7334 28.1587C23.7834 27.4503 24.3667 26.5003 24.3667 25.467C24.3584 24.442 23.7834 23.492 22.7334 22.792Z" fill="#CD929D"/>
<path d="M27.6584 17.117C27.7917 18.7337 26.6417 20.1503 25.05 20.342C25.0417 20.342 25.0417 20.342 25.0334 20.342H25.0084C24.9584 20.342 24.9084 20.342 24.8667 20.3587C24.0584 20.4003 23.3167 20.142 22.7584 19.667C23.6167 18.9003 24.1084 17.7503 24.0084 16.5003C23.95 15.8253 23.7167 15.2087 23.3667 14.6837C23.6834 14.5253 24.05 14.4253 24.425 14.392C26.0584 14.2503 27.5167 15.467 27.6584 17.117Z" fill="#CD929D"/>
<path d="M29.325 24.8253C29.2584 25.6337 28.7417 26.3337 27.875 26.8087C27.0417 27.267 25.9917 27.4837 24.95 27.4587C25.55 26.917 25.9 26.242 25.9667 25.5253C26.05 24.492 25.5584 23.5003 24.575 22.7087C24.0167 22.267 23.3667 21.917 22.6584 21.6587C24.5 21.1253 26.8167 21.4837 28.2417 22.6337C29.0084 23.2503 29.4 24.0253 29.325 24.8253Z" fill="#CD929D"/>
</svg>
