<svg width="50" height="50" viewBox="0 0 50 50" fill="none" xmlns="http://www.w3.org/2000/svg">
<rect width="50" height="50" rx="12" fill="#F5EAEC"/>
<path d="M25 15C19.48 15 15 19.48 15 25C15 30.52 19.48 35 25 35C30.52 35 35 30.52 35 25C35 19.48 30.52 15 25 15ZM21.73 20.66C22.54 20.66 23.21 21.32 23.21 22.14C23.21 22.95 22.55 23.62 21.73 23.62C20.92 23.62 20.25 22.96 20.25 22.14C20.25 21.32 20.91 20.66 21.73 20.66ZM21.85 28.8C21.7 28.95 21.51 29.02 21.32 29.02C21.13 29.02 20.94 28.95 20.79 28.8C20.5 28.51 20.5 28.03 20.79 27.74L27.34 21.19C27.63 20.9 28.11 20.9 28.4 21.19C28.69 21.48 28.69 21.96 28.4 22.25L21.85 28.8ZM28.27 29.34C27.46 29.34 26.79 28.68 26.79 27.86C26.79 27.05 27.45 26.38 28.27 26.38C29.08 26.38 29.75 27.04 29.75 27.86C29.75 28.68 29.09 29.34 28.27 29.34Z" fill="#CD929D"/>
</svg>
