<svg width="24" height="25" viewBox="0 0 24 25" fill="none" xmlns="http://www.w3.org/2000/svg">
<path d="M12 23.0039C11.22 23.0039 10.46 22.6039 9.94 21.9039L8.93 20.5539C8.72 20.2739 8.44 20.1139 8.14 20.0939C7.84 20.0839 7.54 20.2139 7.3 20.4639L6.73 19.9539L7.28 20.4639C5.84 22.0039 4.73 21.8839 4.2 21.6739C3.66 21.4639 2.75 20.7739 2.75 18.5539V7.29391C2.75 2.85391 4.03 1.50391 8.22 1.50391H15.78C19.97 1.50391 21.25 2.85391 21.25 7.29391V18.5539C21.25 20.7639 20.34 21.4539 19.8 21.6739C19.27 21.8839 18.17 22.0039 16.72 20.4639C16.48 20.2039 16.19 20.0639 15.87 20.0939C15.57 20.1139 15.28 20.2739 15.07 20.5539L14.06 21.9039C13.54 22.6039 12.78 23.0039 12 23.0039ZM8.08 18.5839C8.12 18.5839 8.17 18.5839 8.21 18.5839C8.95 18.6239 9.65 19.0139 10.12 19.6439L11.13 20.9939C11.62 21.6439 12.37 21.6439 12.86 20.9939L13.87 19.6439C14.35 19.0139 15.04 18.6239 15.79 18.5839C16.53 18.5439 17.27 18.8539 17.81 19.4339C18.57 20.2439 19.07 20.3439 19.24 20.2739C19.48 20.1739 19.74 19.5939 19.74 18.5539V7.29391C19.74 3.68391 19.11 3.00391 15.77 3.00391H8.22C4.88 3.00391 4.25 3.68391 4.25 7.29391V18.5539C4.25 19.6039 4.51 20.1839 4.75 20.2739C4.92 20.3439 5.42 20.2439 6.18 19.4339C6.72 18.8839 7.39 18.5839 8.08 18.5839Z" fill="#6C757D"/>
<path d="M16 8.00391H8C7.59 8.00391 7.25 7.66391 7.25 7.25391C7.25 6.84391 7.59 6.50391 8 6.50391H16C16.41 6.50391 16.75 6.84391 16.75 7.25391C16.75 7.66391 16.41 8.00391 16 8.00391Z" fill="#6C757D"/>
<path d="M15 12.0039H9C8.59 12.0039 8.25 11.6639 8.25 11.2539C8.25 10.8439 8.59 10.5039 9 10.5039H15C15.41 10.5039 15.75 10.8439 15.75 11.2539C15.75 11.6639 15.41 12.0039 15 12.0039Z" fill="#6C757D"/>
</svg>
