<svg width="40" height="40" viewBox="0 0 40 40" fill="none" xmlns="http://www.w3.org/2000/svg">
<rect width="40" height="40" rx="10" fill="#A40F0F" fill-opacity="0.05"/>
<path d="M21.0004 19.7502C20.8104 19.7502 20.6204 19.6802 20.4704 19.5302C20.1804 19.2402 20.1804 18.7602 20.4704 18.4702L28.6704 10.2702C28.9604 9.98023 29.4404 9.98023 29.7304 10.2702C30.0204 10.5602 30.0204 11.0402 29.7304 11.3302L21.5304 19.5302C21.3804 19.6802 21.1904 19.7502 21.0004 19.7502Z" fill="#D83A3C"/>
<path d="M30.0002 15.55C29.5902 15.55 29.2502 15.21 29.2502 14.8V10.75H25.2002C24.7902 10.75 24.4502 10.41 24.4502 10C24.4502 9.59 24.7902 9.25 25.2002 9.25H30.0002C30.4102 9.25 30.7502 9.59 30.7502 10V14.8C30.7502 15.21 30.4102 15.55 30.0002 15.55Z" fill="#D83A3C"/>
<path d="M23 30.75H17C11.57 30.75 9.25 28.43 9.25 23V17C9.25 11.57 11.57 9.25 17 9.25H19C19.41 9.25 19.75 9.59 19.75 10C19.75 10.41 19.41 10.75 19 10.75H17C12.39 10.75 10.75 12.39 10.75 17V23C10.75 27.61 12.39 29.25 17 29.25H23C27.61 29.25 29.25 27.61 29.25 23V21C29.25 20.59 29.59 20.25 30 20.25C30.41 20.25 30.75 20.59 30.75 21V23C30.75 28.43 28.43 30.75 23 30.75Z" fill="#D83A3C"/>
</svg>
