<svg width="42" height="42" viewBox="0 0 42 42" fill="none" xmlns="http://www.w3.org/2000/svg">
<rect width="42" height="42" rx="5" fill="#F5EAEC"/>
<path d="M30.92 25.7496C30.59 28.4096 28.41 30.5896 25.75 30.9196C24.14 31.1196 22.64 30.6796 21.47 29.8196C20.8 29.3296 20.96 28.2896 21.76 28.0496C24.77 27.1396 27.14 24.7596 28.06 21.7496C28.3 20.9596 29.34 20.7996 29.83 21.4596C30.68 22.6396 31.12 24.1396 30.92 25.7496Z" fill="#CD929D"/>
<path d="M18.99 11C14.58 11 11 14.58 11 18.99C11 23.4 14.58 26.98 18.99 26.98C23.4 26.98 26.98 23.4 26.98 18.99C26.97 14.58 23.4 11 18.99 11ZM18.05 17.87L20.46 18.71C21.33 19.02 21.75 19.63 21.75 20.57C21.75 21.65 20.89 22.54 19.84 22.54H19.75V22.59C19.75 23 19.41 23.34 19 23.34C18.59 23.34 18.25 23 18.25 22.59V22.53C17.14 22.48 16.25 21.55 16.25 20.39C16.25 19.98 16.59 19.64 17 19.64C17.41 19.64 17.75 19.98 17.75 20.39C17.75 20.75 18.01 21.04 18.33 21.04H19.83C20.06 21.04 20.24 20.83 20.24 20.57C20.24 20.22 20.18 20.2 19.95 20.12L17.54 19.28C16.68 18.98 16.25 18.37 16.25 17.42C16.25 16.34 17.11 15.45 18.16 15.45H18.25V15.41C18.25 15 18.59 14.66 19 14.66C19.41 14.66 19.75 15 19.75 15.41V15.47C20.86 15.52 21.75 16.45 21.75 17.61C21.75 18.02 21.41 18.36 21 18.36C20.59 18.36 20.25 18.02 20.25 17.61C20.25 17.25 19.99 16.96 19.67 16.96H18.17C17.94 16.96 17.76 17.17 17.76 17.43C17.75 17.77 17.81 17.79 18.05 17.87Z" fill="#CD929D"/>
</svg>
