<svg width="42" height="42" viewBox="0 0 42 42" fill="none" xmlns="http://www.w3.org/2000/svg">
<rect width="42" height="42" rx="5" fill="#F5EAEC"/>
<path d="M14.74 25C14.85 24.51 14.65 23.81 14.3 23.46L11.87 21.03C11.11 20.27 10.81 19.46 11.03 18.76C11.26 18.06 11.97 17.58 13.03 17.4L16.15 16.88C16.6 16.8 17.15 16.4 17.36 15.99L19.08 12.54C19.58 11.55 20.26 11 21 11C21.74 11 22.42 11.55 22.92 12.54L24.64 15.99C24.77 16.25 25.04 16.5 25.33 16.67L14.56 27.44C14.42 27.58 14.18 27.45 14.22 27.25L14.74 25Z" fill="#CD929D"/>
<path d="M27.7 23.4599C27.34 23.8199 27.14 24.5099 27.26 24.9999L27.95 28.0099C28.24 29.2599 28.06 30.1999 27.44 30.6499C27.19 30.8299 26.89 30.9199 26.54 30.9199C26.03 30.9199 25.43 30.7299 24.77 30.3399L21.84 28.5999C21.38 28.3299 20.62 28.3299 20.16 28.5999L17.23 30.3399C16.12 30.9899 15.17 31.0999 14.56 30.6499C14.33 30.4799 14.16 30.2499 14.05 29.9499L26.21 17.7899C26.67 17.3299 27.32 17.1199 27.95 17.2299L28.96 17.3999C30.02 17.5799 30.73 18.0599 30.96 18.7599C31.18 19.4599 30.88 20.2699 30.12 21.0299L27.7 23.4599Z" fill="#CD929D"/>
</svg>
