<svg width="18" height="18" viewBox="0 0 18 18" fill="none" xmlns="http://www.w3.org/2000/svg">
<path d="M9 17.0625C4.5525 17.0625 0.9375 13.4475 0.9375 9C0.9375 4.5525 4.5525 0.9375 9 0.9375C13.4475 0.9375 17.0625 4.5525 17.0625 9C17.0625 13.4475 13.4475 17.0625 9 17.0625ZM9 2.0625C5.175 2.0625 2.0625 5.175 2.0625 9C2.0625 12.825 5.175 15.9375 9 15.9375C12.825 15.9375 15.9375 12.825 15.9375 9C15.9375 5.175 12.825 2.0625 9 2.0625Z" fill="#61606C"/>
<path d="M10.875 9.5625H6.375C6.0675 9.5625 5.8125 9.3075 5.8125 9C5.8125 8.6925 6.0675 8.4375 6.375 8.4375H10.875C11.1825 8.4375 11.4375 8.6925 11.4375 9C11.4375 9.3075 11.1825 9.5625 10.875 9.5625Z" fill="#61606C"/>
<path d="M9.37496 11.8126C9.23246 11.8126 9.08996 11.7601 8.97746 11.6476C8.75996 11.4301 8.75996 11.0701 8.97746 10.8526L10.83 9.00008L8.97746 7.14758C8.75996 6.93008 8.75996 6.57008 8.97746 6.35258C9.19496 6.13508 9.55496 6.13508 9.77246 6.35258L12.0225 8.60258C12.24 8.82008 12.24 9.18008 12.0225 9.39758L9.77246 11.6476C9.65996 11.7601 9.51746 11.8126 9.37496 11.8126Z" fill="#61606C"/>
</svg>
