<svg width="18" height="18" viewBox="0 0 18 18" fill="none" xmlns="http://www.w3.org/2000/svg">
<path d="M11.0251 17.0616H6.97507C3.27007 17.0616 1.69507 15.4791 1.69507 11.7816V8.41406C1.69507 8.10656 1.95007 7.85156 2.25757 7.85156C2.56507 7.85156 2.82007 8.10656 2.82007 8.41406V11.7816C2.82007 14.8491 3.90757 15.9366 6.97507 15.9366H11.0176C14.0851 15.9366 15.1726 14.8491 15.1726 11.7816V8.41406C15.1726 8.10656 15.4276 7.85156 15.7351 7.85156C16.0426 7.85156 16.2976 8.10656 16.2976 8.41406V11.7816C16.3051 15.4791 14.7226 17.0616 11.0251 17.0616Z" fill="#6C757D"/>
<path d="M9 9.5625C8.175 9.5625 7.425 9.24 6.8925 8.6475C6.36 8.055 6.1125 7.2825 6.195 6.4575L6.6975 1.4475C6.7275 1.1625 6.9675 0.9375 7.26 0.9375H10.7625C11.055 0.9375 11.295 1.155 11.325 1.4475L11.8275 6.4575C11.91 7.2825 11.6625 8.055 11.13 8.6475C10.575 9.24 9.825 9.5625 9 9.5625ZM7.7625 2.0625L7.3125 6.57C7.26 7.0725 7.41 7.545 7.725 7.89C8.3625 8.595 9.6375 8.595 10.275 7.89C10.59 7.5375 10.74 7.065 10.6875 6.57L10.2375 2.0625H7.7625Z" fill="#6C757D"/>
<path d="M13.7325 9.5625C12.21 9.5625 10.8525 8.3325 10.695 6.8175L10.17 1.56C10.155 1.4025 10.2075 1.245 10.3125 1.125C10.4175 1.005 10.5675 0.9375 10.7325 0.9375H13.02C15.225 0.9375 16.2525 1.86 16.56 4.125L16.77 6.21C16.86 7.095 16.59 7.935 16.0125 8.5725C15.435 9.21 14.625 9.5625 13.7325 9.5625ZM11.355 2.0625L11.82 6.705C11.9175 7.6425 12.7875 8.4375 13.7325 8.4375C14.3025 8.4375 14.8125 8.22 15.18 7.8225C15.54 7.425 15.705 6.8925 15.6525 6.3225L15.4425 4.26C15.21 2.565 14.6625 2.0625 13.02 2.0625H11.355Z" fill="#6C757D"/>
<path d="M4.23002 9.5625C3.33752 9.5625 2.52752 9.21 1.95002 8.5725C1.37252 7.935 1.10252 7.095 1.19252 6.21L1.39502 4.1475C1.71002 1.86 2.73752 0.9375 4.94252 0.9375H7.23002C7.38752 0.9375 7.53752 1.005 7.65002 1.125C7.76252 1.245 7.80752 1.4025 7.79252 1.56L7.26752 6.8175C7.11002 8.3325 5.75252 9.5625 4.23002 9.5625ZM4.94252 2.0625C3.30002 2.0625 2.75252 2.5575 2.51252 4.275L2.31002 6.3225C2.25002 6.8925 2.42252 7.425 2.78252 7.8225C3.14252 8.22 3.65252 8.4375 4.23002 8.4375C5.17502 8.4375 6.05252 7.6425 6.14252 6.705L6.60752 2.0625H4.94252Z" fill="#6C757D"/>
<path d="M10.875 17.0625H7.125C6.8175 17.0625 6.5625 16.8075 6.5625 16.5V14.625C6.5625 13.05 7.425 12.1875 9 12.1875C10.575 12.1875 11.4375 13.05 11.4375 14.625V16.5C11.4375 16.8075 11.1825 17.0625 10.875 17.0625ZM7.6875 15.9375H10.3125V14.625C10.3125 13.68 9.945 13.3125 9 13.3125C8.055 13.3125 7.6875 13.68 7.6875 14.625V15.9375Z" fill="#6C757D"/>
</svg>
