<svg width="49" height="49" viewBox="0 0 49 49" fill="none" xmlns="http://www.w3.org/2000/svg">
<path d="M0 14C0 6.26801 6.26801 0 14 0H35C42.732 0 49 6.26801 49 14V35C49 42.732 42.732 49 35 49H14C6.26801 49 0 42.732 0 35V14Z" fill="#CD929D"/>
<path d="M34.2463 15.7539C34.1282 15.6363 33.979 15.5549 33.8162 15.5193C33.6535 15.4836 33.4839 15.4952 33.3275 15.5526L14.0775 22.5526C13.9115 22.6156 13.7686 22.7276 13.6677 22.8737C13.5668 23.0198 13.5128 23.1932 13.5128 23.3707C13.5128 23.5483 13.5668 23.7216 13.6677 23.8678C13.7686 24.0139 13.9115 24.1259 14.0775 24.1889L20.9807 26.9453C21.3526 27.0938 21.7771 27.0062 22.0598 26.7226L26.5249 22.2434C26.8651 21.9021 27.4178 21.9017 27.7586 22.2425C28.099 22.5829 28.099 23.1348 27.7586 23.4752L23.2677 27.9661C22.9848 28.2491 22.8977 28.6735 23.0465 29.045L25.8113 35.9489C25.8761 36.1117 25.9883 36.2512 26.1334 36.3495C26.2785 36.4478 26.4498 36.5003 26.625 36.5001C26.8018 36.4965 26.9734 36.4394 27.1171 36.3363C27.2608 36.2332 27.3699 36.0889 27.43 35.9226L34.43 16.6726C34.4896 16.5178 34.504 16.3492 34.4715 16.1866C34.4389 16.0239 34.3608 15.8738 34.2463 15.7539Z" fill="white"/>
</svg>
