<svg width="42" height="42" viewBox="0 0 42 42" fill="none" xmlns="http://www.w3.org/2000/svg">
<rect width="42" height="42" rx="10" fill="#F5EAEC"/>
<path d="M24.1667 12.8421C23.825 12.5004 23.2333 12.7337 23.2333 13.2087V16.1171C23.2333 17.3337 24.2667 18.3421 25.525 18.3421C26.3167 18.3504 27.4167 18.3504 28.3583 18.3504C28.8333 18.3504 29.0833 17.7921 28.75 17.4587C27.55 16.2504 25.4 14.0754 24.1667 12.8421Z" fill="#CD929D"/>
<path d="M28.0833 19.492H25.675C23.7 19.492 22.0916 17.8837 22.0916 15.9087V13.5003C22.0916 13.042 21.7166 12.667 21.2583 12.667H17.725C15.1583 12.667 13.0833 14.3337 13.0833 17.3087V24.692C13.0833 27.667 15.1583 29.3337 17.725 29.3337H24.275C26.8416 29.3337 28.9166 27.667 28.9166 24.692V20.3253C28.9166 19.867 28.5416 19.492 28.0833 19.492ZM20.5833 25.792H17.25C16.9083 25.792 16.625 25.5087 16.625 25.167C16.625 24.8253 16.9083 24.542 17.25 24.542H20.5833C20.925 24.542 21.2083 24.8253 21.2083 25.167C21.2083 25.5087 20.925 25.792 20.5833 25.792ZM22.25 22.4587H17.25C16.9083 22.4587 16.625 22.1753 16.625 21.8337C16.625 21.492 16.9083 21.2087 17.25 21.2087H22.25C22.5916 21.2087 22.875 21.492 22.875 21.8337C22.875 22.1753 22.5916 22.4587 22.25 22.4587Z" fill="#CD929D"/>
</svg>
