<svg width="94" height="94" viewBox="0 0 94 94" fill="none" xmlns="http://www.w3.org/2000/svg">
<g clip-path="url(#clip0_3142_35152)">
<path d="M47 94C72.9574 94 94 72.9574 94 47C94 21.0426 72.9574 0 47 0C21.0426 0 0 21.0426 0 47C0 72.9574 21.0426 94 47 94Z" fill="#E1BDC3"/>
<path d="M94 50C94 48.7461 94.0964 51.2292 94 50L71.5 28L63 31L53 21L40 15L44 24.5L26 70.5L47.0003 93.9998C46.473 93.9998 47.5233 94.0171 47.0003 93.9998C72.5 93.9998 92.5 74 94 50Z" fill="#CD929D"/>
<path d="M42.5176 18.0576H50.6232V28.5473H42.5176V18.0576Z" fill="#C9C9C9"/>
<path d="M46.541 18.0576H50.6234V28.5473H46.541V18.0576Z" fill="#BDBDBD"/>
<path d="M21.6353 28.207L27.3659 22.4764L34.7821 29.8926L29.0515 35.6232L21.6353 28.207Z" fill="#C9C9C9"/>
<path d="M64.0884 35.6318L58.3577 29.9012L65.7739 22.485L71.5 28L64.0884 35.6318Z" fill="#C9C9C9"/>
<path d="M46.5707 79.6619C61.7976 79.6619 74.1414 67.3181 74.1414 52.0912C74.1414 36.8643 61.7976 24.5205 46.5707 24.5205C31.3438 24.5205 19 36.8643 19 52.0912C19 67.3181 31.3438 79.6619 46.5707 79.6619Z" fill="white"/>
<path d="M46.5706 24.5205C46.5607 24.5205 46.5509 24.5208 46.541 24.5208V79.6614C46.5509 79.6614 46.5607 79.6617 46.5706 79.6617C61.7975 79.6617 74.1413 67.318 74.1413 52.091C74.1413 36.8641 61.7975 24.5205 46.5706 24.5205Z" fill="#D0D0D0"/>
<path d="M46.5708 73.046C58.144 73.046 67.526 63.6641 67.526 52.0909C67.526 40.5177 58.144 31.1357 46.5708 31.1357C34.9976 31.1357 25.6157 40.5177 25.6157 52.0909C25.6157 63.6641 34.9976 73.046 46.5708 73.046Z" fill="#F5F5F5"/>
<path d="M46.5706 31.1357C46.5607 31.1357 46.5509 31.1361 46.541 31.1361V73.0455C46.5509 73.0455 46.5607 73.0458 46.5706 73.0458C58.1438 73.0458 67.5257 63.6639 67.5257 52.0907C67.5257 40.5175 58.1438 31.1357 46.5706 31.1357Z" fill="#F0F0F0"/>
<path d="M39.895 15H53.2454V21.554H39.895V15Z" fill="#BDBDBD"/>
<path d="M46.541 15H53.2459V21.554H46.541V15Z" fill="#C9C9C9"/>
<path d="M44.8374 50.3662L56.3341 38.8695L59.7832 42.3185L48.2864 53.8152L44.8374 50.3662Z" fill="#D0D0D0"/>
<path d="M46.5703 56.3633C48.93 56.3633 50.8428 54.4505 50.8428 52.0909C50.8428 49.7312 48.93 47.8184 46.5703 47.8184C44.2107 47.8184 42.2979 49.7312 42.2979 52.0909C42.2979 54.4505 44.2107 56.3633 46.5703 56.3633Z" fill="#E2E2E2"/>
<path d="M46.5706 47.8184C46.5607 47.8184 46.5509 47.819 46.541 47.8192V56.3627C46.5509 56.3627 46.5607 56.3635 46.5706 56.3635C48.9303 56.3635 50.8431 54.4507 50.8431 52.091C50.8431 49.7313 48.9303 47.8184 46.5706 47.8184Z" fill="#C9C9C9"/>
</g>
<defs>
<clipPath id="clip0_3142_35152">
<rect width="94" height="94" fill="white"/>
</clipPath>
</defs>
</svg>
