<svg width="42" height="42" viewBox="0 0 42 42" fill="none" xmlns="http://www.w3.org/2000/svg">
<rect width="42" height="42" rx="5" fill="#F5EAEC"/>
<path d="M31.9309 19.7788C31.8962 19.4696 31.5355 19.237 31.2236 19.237C30.2157 19.237 29.3211 18.6454 28.946 17.7297C28.563 16.7921 28.8101 15.6988 29.5611 15.0099C29.7976 14.7936 29.8264 14.4315 29.6281 14.1802C29.1121 13.525 28.5258 12.9331 27.8855 12.4202C27.635 12.2193 27.2669 12.2472 27.0495 12.4879C26.3938 13.214 25.2161 13.4838 24.3059 13.1041C23.3591 12.7057 22.7615 11.746 22.8202 10.7159C22.8396 10.3922 22.6028 10.1108 22.2802 10.0732C21.4585 9.9781 20.6295 9.97534 19.8053 10.0668C19.4868 10.102 19.2503 10.3767 19.2608 10.6963C19.2965 11.7163 18.6922 12.6591 17.7545 13.0432C16.8553 13.4105 15.6857 13.1427 15.0314 12.423C14.8152 12.1859 14.4535 12.1568 14.2013 12.3534C13.5421 12.8707 12.9426 13.463 12.4218 14.1128C12.2189 14.3654 12.2489 14.7315 12.4874 14.9485C13.2532 15.642 13.5001 16.7447 13.1025 17.6933C12.7229 18.5976 11.7839 19.1802 10.709 19.1802C10.3603 19.1689 10.112 19.4033 10.0735 19.7205C9.97682 20.5466 9.97578 21.3888 10.0688 22.2217C10.1036 22.5322 10.4749 22.7628 10.7902 22.7628C11.7483 22.7385 12.6676 23.3312 13.0538 24.27C13.438 25.2076 13.1907 26.3004 12.4385 26.9903C12.2032 27.2065 12.1731 27.5678 12.3718 27.8189C12.8826 28.4699 13.4694 29.0622 14.1117 29.5795C14.3638 29.7825 14.7305 29.7541 14.949 29.5132C15.6072 28.7853 16.7848 28.516 17.6912 28.8965C18.6408 29.2938 19.2381 30.2534 19.1798 31.2838C19.1606 31.6075 19.3979 31.8897 19.7194 31.9265C20.14 31.9756 20.5627 32 20.9867 32C21.3892 32 21.7917 31.978 22.1943 31.9332C22.5132 31.898 22.7494 31.623 22.7386 31.3033C22.7018 30.2837 23.3075 29.3409 24.244 28.9575C25.1492 28.5878 26.3135 28.8584 26.9682 29.5771C27.1856 29.8137 27.5451 29.8425 27.7983 29.6466C28.4564 29.1306 29.0547 28.5386 29.5778 27.8871C29.7809 27.635 29.7521 27.2684 29.5123 27.051C28.7466 26.358 28.4984 25.2548 28.896 24.3072C29.2697 23.415 30.1738 22.816 31.1462 22.816L31.2822 22.8196C31.5979 22.8452 31.888 22.6021 31.9261 22.2801C32.0233 21.4532 32.0243 20.612 31.9309 19.7788ZM21 27.3416C17.4974 27.3416 14.6583 24.5025 14.6583 21.0001C14.6583 17.4978 17.4975 14.6586 21 14.6586C24.5024 14.6586 27.3417 17.4978 27.3417 21.0001C27.3417 22.1889 27.0139 23.3009 26.4446 24.2517L23.6678 21.4748C23.8688 21.0008 23.975 20.4869 23.9749 19.9566C23.9749 18.9181 23.5704 17.9419 22.836 17.2077C22.1018 16.4735 21.1255 16.0691 20.0872 16.0691C19.7407 16.0691 19.3958 16.1152 19.0622 16.206C18.916 16.2459 18.7965 16.3663 18.7576 16.5128C18.7178 16.6625 18.7627 16.816 18.8797 16.9331C18.8797 16.9331 20.2506 18.3146 20.7093 18.7731C20.7573 18.8212 20.7572 18.9358 20.7505 18.9771L20.7462 19.0073C20.7 19.5115 20.6108 20.1168 20.5373 20.3495C20.5274 20.3593 20.5181 20.3675 20.508 20.3776C20.4974 20.3882 20.4877 20.3984 20.4775 20.4088C20.2419 20.4845 19.6272 20.5747 19.115 20.6205L19.1151 20.6178L19.092 20.6236C19.088 20.624 19.0803 20.6246 19.0703 20.6246C19.0149 20.6246 18.9334 20.6091 18.8594 20.5352C18.382 20.0578 17.0648 18.75 17.0648 18.75C16.9467 18.6322 16.8254 18.6075 16.7447 18.6075C16.5564 18.6075 16.3878 18.7436 16.3347 18.9387C15.9721 20.2805 16.3565 21.7238 17.3381 22.7055C18.0725 23.4398 19.0489 23.8441 20.0873 23.8441C20.6177 23.8441 21.1315 23.738 21.6055 23.537L24.4125 26.344C23.427 26.9746 22.2567 27.3416 21 27.3416Z" fill="#CD929D"/>
</svg>
