<svg width="42" height="43" viewBox="0 0 42 43" fill="none" xmlns="http://www.w3.org/2000/svg">
<path fill-rule="evenodd" clip-rule="evenodd" d="M19.761 5.91595C19.0715 6.81545 18.2945 8.20495 17.164 10.2315L16.5918 11.2587L16.4885 11.4442C15.9635 12.3892 15.5173 13.1907 14.8015 13.7332C14.0788 14.2827 13.1968 14.4805 12.1713 14.7115L11.9718 14.757L10.8588 15.009C8.66254 15.506 7.16629 15.8472 6.14429 16.2515C5.14504 16.6435 4.93504 16.9672 4.85454 17.2245C4.76879 17.4975 4.76704 17.9157 5.36204 18.8642C5.96929 19.8267 6.99304 21.0272 8.48754 22.7772L9.24704 23.6645L9.37829 23.8167C10.0835 24.6392 10.6715 25.3252 10.941 26.1932C11.2088 27.056 11.1195 27.9607 11.011 29.0597L10.9935 29.2645L10.878 30.4492C10.6505 32.7802 10.5 34.3867 10.5508 35.5417C10.6033 36.6967 10.8465 37.0152 11.0408 37.1622C11.2123 37.2935 11.5308 37.437 12.5685 37.1395C13.6238 36.8385 15.0273 36.1962 17.0835 35.2495L18.1265 34.77L18.3173 34.6825C19.271 34.2397 20.097 33.8582 21 33.8582C21.903 33.8582 22.729 34.2397 23.6828 34.6807C23.7463 34.7113 23.8105 34.7404 23.8753 34.7682L24.9165 35.2495C26.9728 36.1962 28.3763 36.8385 29.4315 37.1395C30.4693 37.437 30.7878 37.2935 30.9593 37.1622C31.1535 37.0152 31.3968 36.695 31.4493 35.5417C31.5018 34.3867 31.3478 32.7802 31.122 30.4492L31.0065 29.2645L30.989 29.0597C30.8805 27.9607 30.7913 27.056 31.059 26.1932C31.3285 25.3252 31.9165 24.6392 32.6218 23.8167L32.753 23.6645L33.5125 22.7772C35.007 21.0272 36.0308 19.8267 36.6363 18.8642C37.233 17.9157 37.2313 17.4992 37.1455 17.2245C37.065 16.9672 36.855 16.6435 35.8558 16.2515C34.832 15.8472 33.3375 15.506 31.1413 15.009L30.0283 14.757C29.96 14.7395 29.8935 14.7255 29.8288 14.7115C28.8033 14.4805 27.9213 14.2827 27.1985 13.7332C26.481 13.1907 26.0383 12.391 25.5115 11.4442L25.41 11.2587L24.836 10.2315C23.7055 8.20495 22.9285 6.81545 22.239 5.91595C21.5513 5.01645 21.1995 4.93945 21 4.93945C20.8005 4.93945 20.4488 5.01645 19.761 5.91595ZM17.6785 4.31995C18.5098 3.23145 19.5405 2.31445 21 2.31445C22.4595 2.31445 23.4885 3.23145 24.3233 4.31995C25.1423 5.39095 26.012 6.9502 27.0743 8.85595L27.7025 9.9812C28.3885 11.2132 28.5653 11.4757 28.7858 11.6437C28.9958 11.803 29.2705 11.894 30.6058 12.1967L31.8308 12.4732C33.8888 12.9387 35.5845 13.322 36.8183 13.8085C38.0993 14.3142 39.221 15.058 39.6533 16.4457C40.0803 17.8195 39.6008 19.083 38.8588 20.2607C38.1378 21.407 36.9863 22.7545 35.5793 24.3995L34.748 25.3707C33.8433 26.4277 33.6543 26.6867 33.565 26.972C33.4758 27.2642 33.4828 27.602 33.621 29.0107L33.7453 30.3022C33.9588 32.5002 34.132 34.2922 34.0708 35.6572C34.0095 37.0485 33.6945 38.382 32.5483 39.2535C31.3793 40.139 30.0195 40.041 28.707 39.663C27.4348 39.299 25.8493 38.5692 23.9243 37.682L22.7763 37.1535C21.5198 36.576 21.252 36.4832 21 36.4832C20.748 36.4832 20.4803 36.576 19.2238 37.1535L18.0775 37.682C16.1508 38.5692 14.5653 39.299 13.293 39.663C11.9805 40.0392 10.6208 40.139 9.45354 39.2535C8.30554 38.382 7.99054 37.0485 7.92929 35.659C7.86804 34.294 8.04129 32.5002 8.25479 30.304L8.38079 29.0107C8.51729 27.6002 8.52429 27.2642 8.43329 26.972C8.34579 26.6867 8.15679 26.4295 7.25204 25.3707L6.42079 24.3995C5.01554 22.7545 3.86404 21.407 3.14304 20.2625C2.39929 19.083 1.91979 17.8195 2.34679 16.4457C2.77904 15.058 3.90079 14.3142 5.18179 13.8085C6.41554 13.322 8.11129 12.9387 10.1693 12.4732L10.2795 12.4487L11.3925 12.1967C12.7295 11.894 13.0025 11.803 13.2143 11.642C13.4348 11.4757 13.6115 11.2132 14.2993 9.9812L14.9258 8.85595C15.988 6.94845 16.8578 5.39095 17.6768 4.31995" fill="#E1BDC3"/>
</svg>
