<svg width="18" height="19" viewBox="0 0 18 19" fill="none" xmlns="http://www.w3.org/2000/svg">
<path d="M10.2975 3.13297L11.6175 5.77297C11.7975 6.14047 12.2775 6.49297 12.6825 6.56047L15.075 6.95797C16.605 7.21297 16.965 8.32297 15.8625 9.41797L14.0025 11.278C13.6875 11.593 13.515 12.2005 13.6125 12.6355L14.145 14.938C14.565 16.7605 13.5975 17.4655 11.985 16.513L9.7425 15.1855C9.3375 14.9455 8.67 14.9455 8.2575 15.1855L6.015 16.513C4.41 17.4655 3.435 16.753 3.855 14.938L4.3875 12.6355C4.485 12.2005 4.3125 11.593 3.9975 11.278L2.1375 9.41797C1.0425 8.32297 1.395 7.21297 2.925 6.95797L5.3175 6.56047C5.715 6.49297 6.195 6.14047 6.375 5.77297L7.695 3.13297C8.415 1.70047 9.585 1.70047 10.2975 3.13297Z" fill="#F59E0B"/>
</svg>
