<svg width="42" height="42" viewBox="0 0 42 42" fill="none" xmlns="http://www.w3.org/2000/svg">
<rect width="42" height="42" rx="5" fill="#F5EAEC"/>
<path fill-rule="evenodd" clip-rule="evenodd" d="M17.9257 25.39H23.3119C23.7178 25.39 24.0545 25.05 24.0545 24.64C24.0545 24.23 23.7178 23.9 23.3119 23.9H17.9257C17.5198 23.9 17.1832 24.23 17.1832 24.64C17.1832 25.05 17.5198 25.39 17.9257 25.39ZM21.2723 18.9H17.9257C17.5198 18.9 17.1832 19.24 17.1832 19.65C17.1832 20.06 17.5198 20.39 17.9257 20.39H21.2723C21.6782 20.39 22.0149 20.06 22.0149 19.65C22.0149 19.24 21.6782 18.9 21.2723 18.9ZM28.3381 18.0256C28.5708 18.0229 28.8242 18.02 29.0545 18.02C29.302 18.02 29.5 18.22 29.5 18.47V26.51C29.5 28.99 27.5099 31 25.0545 31H17.1733C14.599 31 12.5 28.89 12.5 26.29V15.51C12.5 13.03 14.5 11 16.9653 11H22.2525C22.5099 11 22.7079 11.21 22.7079 11.46V14.68C22.7079 16.51 24.203 18.01 26.0149 18.02C26.4381 18.02 26.8112 18.0232 27.1377 18.0259C27.3917 18.0281 27.6175 18.03 27.8168 18.03C27.9578 18.03 28.1405 18.0279 28.3381 18.0256ZM28.6111 16.566C27.7972 16.569 26.8378 16.566 26.1477 16.559C25.0527 16.559 24.1507 15.648 24.1507 14.542V11.906C24.1507 11.475 24.6685 11.261 24.9646 11.572C25.5004 12.1348 26.2368 12.9083 26.9699 13.6784C27.7009 14.4463 28.4286 15.2107 28.9507 15.759C29.2398 16.062 29.0279 16.565 28.6111 16.566Z" fill="#CD929D"/>
</svg>
