<svg width="16" height="18" viewBox="0 0 16 18" fill="none" xmlns="http://www.w3.org/2000/svg">
<path d="M2.20886 6.27848C1.50477 5.3397 2.17462 4 3.3481 4H12.6519C13.8254 4 14.4952 5.3397 13.7911 6.27848V6.27848C13.2776 6.9632 13 7.796 13 8.6519V14C13 15.8409 11.5076 17.3333 9.66667 17.3333H6.33333C4.49238 17.3333 3 15.8409 3 14V8.6519C3 7.796 2.7224 6.9632 2.20886 6.27848V6.27848Z" stroke="#D83A3C" stroke-width="1.25"/>
<path d="M9.66675 13.166L9.66675 8.16602" stroke="#D83A3C" stroke-width="1.25" stroke-linecap="round" stroke-linejoin="round"/>
<path d="M6.33325 13.166L6.33325 8.16602" stroke="#D83A3C" stroke-width="1.25" stroke-linecap="round" stroke-linejoin="round"/>
<path d="M11.3334 4L10.88 2.63962C10.6531 1.95905 10.0162 1.5 9.29882 1.5H6.70135C5.98396 1.5 5.34706 1.95905 5.12021 2.63962L4.66675 4" stroke="#D83A3C" stroke-width="1.25" stroke-linecap="round"/>
</svg>
