<svg width="20" height="20" viewBox="0 0 20 20" fill="none" xmlns="http://www.w3.org/2000/svg">
<path d="M4.20886 7.27848C3.50477 6.3397 4.17462 5 5.3481 5H14.6519C15.8254 5 16.4952 6.3397 15.7911 7.27848V7.27848C15.2776 7.9632 15 8.796 15 9.6519V15C15 16.8409 13.5076 18.3333 11.6667 18.3333H8.33333C6.49238 18.3333 5 16.8409 5 15V9.6519C5 8.796 4.7224 7.9632 4.20886 7.27848V7.27848Z" stroke="#6C757D" stroke-width="1.25"/>
<path d="M11.6667 14.167L11.6667 9.16699" stroke="#6C757D" stroke-width="1.25" stroke-linecap="round" stroke-linejoin="round"/>
<path d="M8.33325 14.167L8.33325 9.16699" stroke="#6C757D" stroke-width="1.25" stroke-linecap="round" stroke-linejoin="round"/>
<path d="M13.3334 5L12.88 3.63962C12.6531 2.95905 12.0162 2.5 11.2988 2.5H8.70135C7.98396 2.5 7.34706 2.95905 7.12021 3.63962L6.66675 5" stroke="#6C757D" stroke-width="1.25" stroke-linecap="round"/>
</svg>
