<svg width="24" height="24" viewBox="0 0 24 24" fill="none" xmlns="http://www.w3.org/2000/svg">
<path d="M11.94 2.20983L9.52995 7.81983H7.11995C6.71995 7.81983 6.32995 7.84983 5.94995 7.92983L6.94995 5.52983L6.98995 5.43983L7.04995 5.27983C7.07995 5.20983 7.09995 5.14983 7.12995 5.09983C8.28995 2.40983 9.58995 1.56983 11.94 2.20983Z" fill="#CD929D"/>
<path d="M18.73 8.08953L18.71 8.07953C18.11 7.90953 17.5 7.81953 16.88 7.81953H10.62L12.87 2.58953L12.9 2.51953C13.04 2.56953 13.19 2.63953 13.34 2.68953L15.55 3.61953C16.78 4.12953 17.64 4.65953 18.17 5.29953C18.26 5.41953 18.34 5.52953 18.42 5.65953C18.51 5.79953 18.58 5.93953 18.62 6.08953C18.66 6.17953 18.69 6.25953 18.71 6.34953C18.86 6.85953 18.87 7.43953 18.73 8.08953Z" fill="#CD929D"/>
<path d="M18.29 9.52031C17.84 9.39031 17.37 9.32031 16.88 9.32031H7.11999C6.43999 9.32031 5.79999 9.45031 5.19999 9.71031C3.45999 10.4603 2.23999 12.1903 2.23999 14.2003V16.1503C2.23999 16.3903 2.25999 16.6203 2.28999 16.8603C2.50999 20.0403 4.20999 21.7403 7.38999 21.9503C7.61999 21.9803 7.84999 22.0003 8.09999 22.0003H15.9C19.6 22.0003 21.55 20.2403 21.74 16.7403C21.75 16.5503 21.76 16.3503 21.76 16.1503V14.2003C21.76 11.9903 20.29 10.1303 18.29 9.52031ZM14.5 16.7503H9.49999C9.08999 16.7503 8.74999 16.4103 8.74999 16.0003C8.74999 15.5903 9.08999 15.2503 9.49999 15.2503H14.5C14.91 15.2503 15.25 15.5903 15.25 16.0003C15.25 16.4103 14.91 16.7503 14.5 16.7503Z" fill="#CD929D"/>
</svg>
