<svg width="42" height="42" viewBox="0 0 42 42" fill="none" xmlns="http://www.w3.org/2000/svg">
<rect width="42" height="42" rx="10" fill="#F5EAEC"/>
<path d="M24.9583 13.967V12.667C24.9583 12.3253 24.675 12.042 24.3333 12.042C23.9917 12.042 23.7083 12.3253 23.7083 12.667V13.917H18.2917V12.667C18.2917 12.3253 18.0083 12.042 17.6667 12.042C17.325 12.042 17.0417 12.3253 17.0417 12.667V13.967C14.7917 14.1753 13.7 15.517 13.5333 17.5087C13.5167 17.7503 13.7167 17.9503 13.95 17.9503H28.05C28.2917 17.9503 28.4917 17.742 28.4667 17.5087C28.3 15.517 27.2083 14.1753 24.9583 13.967Z" fill="#CD929D"/>
<path d="M27.6667 19.2002H14.3333C13.875 19.2002 13.5 19.5752 13.5 20.0335V25.1669C13.5 27.6669 14.75 29.3335 17.6667 29.3335H24.3333C27.25 29.3335 28.5 27.6669 28.5 25.1669V20.0335C28.5 19.5752 28.125 19.2002 27.6667 19.2002ZM23.3667 23.4919L22.95 23.9169H22.9417L20.4167 26.4419C20.3083 26.5502 20.0833 26.6669 19.925 26.6835L18.8 26.8502C18.3917 26.9085 18.1083 26.6169 18.1667 26.2169L18.325 25.0835C18.35 24.9252 18.4583 24.7085 18.5667 24.5919L21.1 22.0669L21.5167 21.6419C21.7917 21.3669 22.1 21.1669 22.4333 21.1669C22.7167 21.1669 23.025 21.3002 23.3667 21.6419C24.1167 22.3919 23.875 22.9835 23.3667 23.4919Z" fill="#CD929D"/>
</svg>
