<svg width="54" height="53" viewBox="0 0 54 53" fill="none" xmlns="http://www.w3.org/2000/svg">
<rect x="0.375" width="53" height="53" rx="26.5" fill="#FAF5F6"/>
<g clip-path="url(#clip0_1336_51528)">
<path d="M24.4902 29.9113L30.6793 26.3338L24.4902 22.7563V29.9113ZM38.2755 20.5741C38.4305 21.1345 38.5378 21.8858 38.6094 22.8398C38.6929 23.7938 38.7286 24.6166 38.7286 25.3321L38.8002 26.3338C38.8002 28.9454 38.6094 30.8653 38.2755 32.0936C37.9774 33.1669 37.2857 33.8585 36.2125 34.1566C35.652 34.3117 34.6264 34.419 33.0523 34.4905C31.5021 34.574 30.083 34.6098 28.7713 34.6098L26.8752 34.6813C21.8786 34.6813 18.7662 34.4905 17.5379 34.1566C16.4647 33.8585 15.773 33.1669 15.4749 32.0936C15.3199 31.5331 15.2125 30.7819 15.141 29.8279C15.0575 28.8739 15.0217 28.051 15.0217 27.3355L14.9502 26.3338C14.9502 23.7223 15.141 21.8023 15.4749 20.5741C15.773 19.5008 16.4647 18.8092 17.5379 18.511C18.0984 18.356 19.1239 18.2487 20.698 18.1771C22.2483 18.0937 23.6674 18.0579 24.9791 18.0579L26.8752 17.9863C31.8718 17.9863 34.9842 18.1771 36.2125 18.511C37.2857 18.8092 37.9774 19.5008 38.2755 20.5741Z" fill="#CD929D"/>
</g>
<defs>
<clipPath id="clip0_1336_51528">
<rect width="23.85" height="23.85" fill="white" transform="translate(14.9502 14.5742)"/>
</clipPath>
</defs>
</svg>
